<?xml version="1.0" encoding="utf-8"?>
<!-- Generator: Adobe Illustrator 18.0.0, SVG Export Plug-In . SVG Version: 6.00 Build 0)  -->
<!DOCTYPE svg PUBLIC "-//W3C//DTD SVG 1.1//EN" "http://www.w3.org/Graphics/SVG/1.1/DTD/svg11.dtd">
<svg version="1.1" id="Layer_1" xmlns="http://www.w3.org/2000/svg" xmlns:xlink="http://www.w3.org/1999/xlink" x="0px" y="0px"
	 viewBox="0 0 179.5 91.9" enable-background="new 0 0 179.5 91.9" xml:space="preserve">
<g>
	<g>
		<path fill-rule="evenodd" clip-rule="evenodd" fill="#117C97" d="M161,63.7c0,3.8-3,6.8-6.8,6.8H25.3c-3.8,0-6.8-3-6.8-6.8V28.2
			c0-3.8,3-6.8,6.8-6.8h128.9c3.8,0,6.8,3,6.8,6.8V63.7z"/>
		<path fill="#117C97" d="M154.2,71.9H25.3c-4.5,0-8.1-3.7-8.1-8.1V28.2c0-4.5,3.7-8.1,8.1-8.1h128.9c4.5,0,8.1,3.7,8.1,8.1v35.5
			C162.4,68.2,158.7,71.9,154.2,71.9z M25.3,22.8c-3,0-5.4,2.4-5.4,5.4v35.5c0,3,2.4,5.4,5.4,5.4h128.9c3,0,5.4-2.4,5.4-5.4V28.2
			c0-3-2.4-5.4-5.4-5.4H25.3z"/>
	</g>
	<path fill-rule="evenodd" clip-rule="evenodd" fill="#FFFFFF" d="M68.4,21.4H25.3c-3.8,0-6.8,3-6.8,6.8v35.5c0,3.8,3,6.8,6.8,6.8
		h43.2V21.4z"/>
	<path fill-rule="evenodd" clip-rule="evenodd" fill="#117C97" d="M42.2,36.7l-2.1,2.9c-1.1,1.5-0.7,4.1,0.7,5.1l3.9,2.8
		c0.7,0.5,0.7,1,0.4,1.5l0.6,0.4l2-2.8c1.2-1.7,1.1-4-0.7-5.4l-4-2.9c-0.5-0.3-0.5-0.8-0.3-1.4L42.2,36.7L42.2,36.7z"/>
	<path fill-rule="evenodd" clip-rule="evenodd" fill="#117C97" d="M45.6,23.8l-3.3,4.6c-1.5,2.1-1,5.8,1.1,7.4l5.4,4
		c1.1,0.8,1.2,2.9,0.4,3.9l0.5,0.3l3.7-5.3c1.7-2.4,1.6-5.9-1.1-7.8l-5.8-4.2c-0.8-0.6-1.2-1.6-0.5-2.6L45.6,23.8L45.6,23.8z"/>
	<path fill-rule="evenodd" clip-rule="evenodd" fill="#117C97" d="M36.9,52.4h4.4l0.8,2.7c2.4,0,4.8,0,7.2,0l0.8-2.7h4.4l-0.6-2
		c-5.4,0-10.9,0-16.3,0L36.9,52.4L36.9,52.4z"/>
	<path fill-rule="evenodd" clip-rule="evenodd" fill="#036797" d="M59.5,66c0,0,0-0.1,0-0.1c0,0,0-0.1-0.1-0.1c0,0-0.1,0-0.1-0.1
		c0,0-0.1,0-0.2-0.1c-0.1,0-0.1,0-0.1-0.1c0,0-0.1,0-0.1-0.1c0,0,0,0,0-0.1c0,0,0,0,0-0.1c0,0,0,0,0-0.1c0,0,0,0,0-0.1
		c0,0,0,0,0.1,0c0,0,0.1,0,0.1,0c0.1,0,0.1,0,0.1,0c0,0,0.1,0,0.1,0.1l0.1-0.1c0,0-0.1-0.1-0.1-0.1c-0.1,0-0.1,0-0.2,0
		c-0.1,0-0.1,0-0.1,0c0,0-0.1,0-0.1,0.1c0,0-0.1,0.1-0.1,0.1c0,0,0,0.1,0,0.1c0,0,0,0.1,0,0.1c0,0,0,0.1,0.1,0.1c0,0,0.1,0,0.1,0.1
		c0,0,0.1,0,0.2,0.1c0.1,0,0.1,0,0.1,0.1c0,0,0.1,0,0.1,0.1c0,0,0,0,0,0.1c0,0,0,0,0,0.1c0,0.1,0,0.1-0.1,0.1c0,0-0.1,0-0.2,0
		c-0.1,0-0.1,0-0.2,0c0,0-0.1-0.1-0.1-0.1l-0.1,0.1c0,0,0.1,0.1,0.2,0.1c0.1,0,0.1,0,0.2,0c0.1,0,0.1,0,0.2,0c0,0,0.1,0,0.1-0.1
		c0,0,0.1-0.1,0.1-0.1C59.5,66.1,59.5,66.1,59.5,66L59.5,66z"/>
	<path fill-rule="evenodd" clip-rule="evenodd" fill="#036797" d="M60.6,66.3v-1.1h-0.1l-0.3,0.7c0,0,0,0,0,0.1c0,0,0,0,0,0.1
		c0,0,0,0,0,0.1c0,0,0,0,0,0c0,0,0,0,0,0c0,0,0,0,0-0.1c0,0,0,0,0-0.1c0,0,0,0,0-0.1l-0.3-0.7h-0.1v1.1h0.1v-0.7v-0.1c0,0,0,0,0,0
		c0,0,0,0,0,0c0,0,0,0,0,0c0,0,0,0,0,0l0.3,0.7l0.3-0.7c0,0,0,0,0,0c0,0,0,0,0,0c0,0,0,0,0,0c0,0,0,0,0,0v0.1v0.7H60.6L60.6,66.3z"
		/>
	<path fill-rule="evenodd" clip-rule="evenodd" fill="#117C97" d="M40.6,63.3c-0.2-1.3-0.7-1.6-1.7-2c0.8-0.5,1.2-1.1,1.2-2
		c0-1.8-1.5-2.6-3.1-2.6h-4.5v9.6H37C38.9,66.4,41,65.5,40.6,63.3z M34.6,58.6h2.4c1.5,0,1.5,2.1,0.1,2.1h-2.4V58.6z M37.2,64.5
		h-2.6v-2.2h2.6C39.1,62.3,39,64.5,37.2,64.5z"/>
	<path fill-rule="evenodd" clip-rule="evenodd" fill="#117C97" d="M49.6,63.3c-0.2-1.3-0.7-1.6-1.7-2c0.8-0.5,1.2-1.1,1.2-2
		c0-1.8-1.5-2.6-3.1-2.6h-4.5v9.6H46C47.9,66.4,50,65.5,49.6,63.3z M43.6,58.6h2.4c1.5,0,1.5,2.1,0.1,2.1h-2.4V58.6z M46.2,64.5
		h-2.6v-2.2h2.6C48.1,62.3,48,64.5,46.2,64.5z"/>
	<path fill-rule="evenodd" clip-rule="evenodd" fill="#117C97" d="M58.6,63.3c-0.2-1.3-0.7-1.6-1.7-2c0.8-0.5,1.2-1.1,1.2-2
		c0-1.8-1.5-2.6-3.1-2.6h-4.5v9.6H55C56.9,66.4,58.9,65.5,58.6,63.3z M52.6,58.6h2.4c1.5,0,1.5,2.1,0.1,2.1h-2.4V58.6z M55.2,64.5
		h-2.6v-2.2h2.6C57.1,62.3,57,64.5,55.2,64.5z"/>
	<path fill-rule="evenodd" clip-rule="evenodd" fill="#FFFFFF" d="M90.8,38.6c-0.5-0.6-1.4-1.2-2.2-1.4c-0.4-0.1-0.7-0.1-1.2-0.1
		c-0.6,0-1.2,0.1-1.7,0.3c-0.5,0.2-0.9,0.5-1.3,0.9c-0.4,0.4-0.6,0.9-0.8,1.4c-0.2,0.6-0.3,1.2-0.3,1.8c0,0.7,0.1,1.3,0.3,1.9
		c0.2,0.6,0.5,1,0.8,1.4c0.4,0.4,0.8,0.7,1.3,0.9c0.5,0.2,1,0.3,1.7,0.3c1.1,0,3.1-0.6,3.6-1.7l-1.3-1.2c-0.4,0.6-1.5,1.1-2.2,1.1
		c-0.3,0-0.7-0.1-0.9-0.2c-0.3-0.1-0.5-0.3-0.7-0.6c-0.2-0.3-0.3-0.5-0.4-0.9c-0.1-0.3-0.1-0.7-0.1-1.1c0-0.4,0-0.8,0.1-1.1
		c0.1-0.3,0.2-0.6,0.4-0.9c0.2-0.2,0.4-0.4,0.7-0.6c0.3-0.1,0.6-0.2,0.9-0.2c0.7,0,1.7,0.5,2.1,1.1L90.8,38.6L90.8,38.6z"/>
	<polygon fill-rule="evenodd" clip-rule="evenodd" fill="#FFFFFF" points="116.2,46 116.2,44.3 111.4,44.3 111.4,42.1 115.2,42.1 
		115.2,40.4 111.4,40.4 111.4,38.9 116,38.9 116,37.2 109.5,37.2 109.5,46 116.2,46 	"/>
	<path fill-rule="evenodd" clip-rule="evenodd" fill="#FFFFFF" d="M124.7,39.5c-0.2-0.6-0.6-1-1-1.4c-0.4-0.4-0.9-0.6-1.5-0.8
		c-0.6-0.2-1.2-0.2-1.8-0.2h-2.9V46h2.8c0.6,0,1.2-0.1,1.7-0.3c0.6-0.2,1.1-0.4,1.5-0.8c0.4-0.4,0.8-0.8,1.1-1.4
		c0.3-0.6,0.4-1.2,0.4-2C125.1,40.8,124.9,40.1,124.7,39.5z M123,42.7c-0.1,0.3-0.3,0.6-0.5,0.8c-0.2,0.2-0.5,0.4-0.9,0.5
		c-0.4,0.1-0.8,0.2-1.3,0.2h-0.9v-5.4h1c1,0,1.7,0.2,2.1,0.7c0.4,0.4,0.6,1.1,0.6,2C123.2,42,123.1,42.4,123,42.7z"/>
	<polygon fill-rule="evenodd" clip-rule="evenodd" fill="#FFFFFF" points="128.7,46 128.7,37.2 126.9,37.2 126.9,46 128.7,46 	"/>
	<polygon fill-rule="evenodd" clip-rule="evenodd" fill="#FFFFFF" points="137.4,38.9 137.4,37.2 130.2,37.2 130.2,38.9 132.8,38.9 
		132.8,46 134.7,46 134.7,38.9 137.4,38.9 	"/>
	<path fill-rule="evenodd" clip-rule="evenodd" fill="#FFFFFF" d="M153.7,39.5c-0.2-0.6-0.6-1-1-1.4c-0.4-0.4-0.9-0.6-1.5-0.8
		c-0.6-0.2-1.2-0.2-1.8-0.2h-2.9V46h2.8c0.6,0,1.2-0.1,1.7-0.3c0.6-0.2,1.1-0.4,1.5-0.8c0.4-0.4,0.8-0.8,1.1-1.4
		c0.3-0.6,0.4-1.2,0.4-2C154.1,40.8,154,40.1,153.7,39.5z M152,42.7c-0.1,0.3-0.3,0.6-0.5,0.8c-0.2,0.2-0.5,0.4-0.9,0.5
		c-0.4,0.1-0.8,0.2-1.3,0.2h-0.9v-5.4h1c1,0,1.7,0.2,2.1,0.7c0.4,0.4,0.6,1.1,0.6,2C152.2,42,152.1,42.4,152,42.7z"/>
	<polygon fill-rule="evenodd" clip-rule="evenodd" fill="#FFFFFF" points="145.2,46 145.2,44.3 140.4,44.3 140.4,42.1 144.3,42.1 
		144.3,40.4 140.4,40.4 140.4,38.9 145,38.9 145,37.2 138.5,37.2 138.5,46 145.2,46 	"/>
	<polygon fill-rule="evenodd" clip-rule="evenodd" fill="#FFFFFF" points="129.7,57.4 129.7,55.6 124.9,55.6 124.9,53.5 128.7,53.5 
		128.7,51.8 124.9,51.8 124.9,50.3 129.5,50.3 129.5,48.6 123,48.6 123,57.4 129.7,57.4 	"/>
	<path fill-rule="evenodd" clip-rule="evenodd" fill="#FFFFFF" d="M99.3,38.6c-0.5-0.6-1.4-1.2-2.2-1.4c-0.4-0.1-0.7-0.1-1.2-0.1
		c-0.6,0-1.2,0.1-1.7,0.3c-0.5,0.2-0.9,0.5-1.3,0.9c-0.4,0.4-0.6,0.9-0.8,1.4c-0.2,0.6-0.3,1.2-0.3,1.8c0,0.7,0.1,1.3,0.3,1.9
		c0.2,0.6,0.5,1,0.8,1.4c0.4,0.4,0.8,0.7,1.3,0.9c0.5,0.2,1,0.3,1.7,0.3c1.1,0,3.1-0.6,3.6-1.7l-1.3-1.2c-0.4,0.6-1.5,1.1-2.2,1.1
		c-0.3,0-0.7-0.1-0.9-0.2c-0.3-0.1-0.5-0.3-0.7-0.6c-0.2-0.3-0.3-0.5-0.4-0.9c-0.1-0.3-0.1-0.7-0.1-1.1c0-0.4,0-0.8,0.1-1.1
		c0.1-0.3,0.2-0.6,0.4-0.9c0.2-0.2,0.4-0.4,0.7-0.6c0.3-0.1,0.6-0.2,0.9-0.2c0.7,0,1.7,0.5,2.1,1.1L99.3,38.6L99.3,38.6z"/>
	<path fill-rule="evenodd" clip-rule="evenodd" fill="#FFFFFF" d="M91.4,53.3c-0.2-0.3-0.5-0.6-0.9-0.7c0.3-0.2,0.5-0.4,0.7-0.7
		c0.2-0.3,0.3-0.6,0.3-1c0-0.8-0.3-1.3-0.8-1.7c-0.5-0.4-1.2-0.6-2.1-0.6h-4.1v8.8h4.1c0.5,0,0.9-0.1,1.3-0.2c0.4-0.1,0.7-0.3,1-0.5
		c0.3-0.2,0.5-0.5,0.7-0.9c0.2-0.4,0.2-0.8,0.2-1.2C91.8,54,91.6,53.6,91.4,53.3z M86.2,50.2h2.3c0.4,0,0.7,0.1,0.9,0.2
		c0.2,0.1,0.3,0.4,0.3,0.6c0,0.2-0.1,0.4-0.2,0.6c-0.2,0.2-0.4,0.2-0.8,0.2h-2.4V50.2z M89.6,55.4c-0.2,0.2-0.5,0.3-1,0.3h-2.4v-2.3
		h2.4c0.9,0,1.3,0.4,1.3,1.1C89.9,54.9,89.8,55.2,89.6,55.4z"/>
	<path fill-rule="evenodd" clip-rule="evenodd" fill="#FFFFFF" d="M100.3,53.5v-4.9h-1.8v4.9c0,0.7-0.2,1.3-0.5,1.7
		c-0.3,0.4-0.8,0.6-1.4,0.6c-0.6,0-1-0.2-1.4-0.6c-0.3-0.4-0.5-1-0.5-1.7v-4.9H93v4.9c0,0.6,0.1,1.2,0.3,1.7
		c0.2,0.5,0.4,0.9,0.7,1.3c0.3,0.3,0.7,0.6,1.2,0.8c0.5,0.2,0.9,0.3,1.5,0.3c1.2,0,2.1-0.4,2.7-1C100,55.7,100.3,54.8,100.3,53.5
		L100.3,53.5z"/>
	<path fill-rule="evenodd" clip-rule="evenodd" fill="#FFFFFF" d="M108.6,54.7c0-0.5-0.1-0.9-0.3-1.2c-0.2-0.3-0.4-0.6-0.7-0.8
		c-0.3-0.2-0.6-0.4-1-0.5c-0.4-0.1-0.7-0.2-1.1-0.3c-0.4-0.1-0.7-0.2-0.9-0.2c-0.2-0.1-0.4-0.1-0.6-0.2c-0.1-0.1-0.2-0.2-0.3-0.3
		c-0.1-0.1-0.1-0.2-0.1-0.4c0-0.1,0-0.2,0.1-0.3c0-0.1,0.1-0.2,0.2-0.3c0.1-0.1,0.2-0.1,0.4-0.2c0.2,0,0.4-0.1,0.6-0.1
		c0.4,0,0.8,0.1,1.1,0.2c0.3,0.2,0.6,0.4,0.9,0.7l1.3-1.2c-0.4-0.4-0.9-0.8-1.4-1c-0.5-0.2-1.1-0.4-1.9-0.4c-0.4,0-0.9,0.1-1.3,0.2
		c-0.4,0.1-0.7,0.3-1,0.5c-0.3,0.2-0.5,0.5-0.7,0.8c-0.2,0.3-0.3,0.7-0.3,1.1c0,0.4,0.1,0.8,0.2,1.1c0.1,0.3,0.3,0.5,0.6,0.7
		c0.2,0.2,0.5,0.4,0.9,0.5c0.3,0.1,0.7,0.2,1.1,0.3c0.4,0.1,0.8,0.2,1,0.3c0.3,0.1,0.5,0.2,0.6,0.3c0.1,0.1,0.2,0.2,0.3,0.3
		c0.1,0.1,0.1,0.2,0.1,0.4c0,0.3-0.1,0.6-0.4,0.7c-0.3,0.2-0.7,0.2-1.2,0.2c-0.4,0-0.9-0.1-1.2-0.2c-0.4-0.2-0.7-0.4-1.1-0.8
		l-1.3,1.1c0.3,0.5,0.8,0.9,1.4,1.2c0.6,0.3,1.3,0.4,2.1,0.4c0.6,0,1.2-0.1,1.6-0.2c0.4-0.1,0.8-0.3,1.1-0.6
		c0.3-0.2,0.5-0.5,0.6-0.9C108.5,55.5,108.6,55.1,108.6,54.7L108.6,54.7z"/>
	<polygon fill-rule="evenodd" clip-rule="evenodd" fill="#FFFFFF" points="111.9,57.4 111.9,48.6 110.1,48.6 110.1,57.4 111.9,57.4 
			"/>
	<path fill-rule="evenodd" clip-rule="evenodd" fill="#FFFFFF" d="M121.1,57.4v-8.8h-1.8v3.7c0,0.1,0,0.3,0,0.5c0,0.2,0,0.4,0,0.6
		c0,0.2,0,0.4,0,0.5c0,0.2,0,0.3,0,0.4c-0.1-0.1-0.2-0.3-0.3-0.5c-0.1-0.2-0.2-0.4-0.4-0.5l-3.2-4.7h-1.7v8.8h1.8v-3.9
		c0-0.1,0-0.3,0-0.5c0-0.2,0-0.4,0-0.6c0-0.2,0-0.4,0-0.5c0-0.2,0-0.3,0-0.4c0.1,0.1,0.2,0.3,0.3,0.5c0.1,0.2,0.2,0.4,0.4,0.5
		l3.3,4.8H121.1L121.1,57.4z"/>
	<path fill-rule="evenodd" clip-rule="evenodd" fill="#FFFFFF" d="M137,54.7c0-0.5-0.1-0.9-0.3-1.2c-0.2-0.3-0.4-0.6-0.7-0.8
		s-0.6-0.4-1-0.5c-0.4-0.1-0.7-0.2-1.1-0.3c-0.4-0.1-0.7-0.2-0.9-0.2c-0.2-0.1-0.4-0.1-0.6-0.2c-0.1-0.1-0.2-0.2-0.3-0.3
		c-0.1-0.1-0.1-0.2-0.1-0.4c0-0.1,0-0.2,0.1-0.3c0-0.1,0.1-0.2,0.2-0.3c0.1-0.1,0.2-0.1,0.4-0.2c0.2,0,0.4-0.1,0.6-0.1
		c0.4,0,0.8,0.1,1.1,0.2c0.3,0.2,0.6,0.4,0.9,0.7l1.3-1.2c-0.4-0.4-0.9-0.8-1.4-1c-0.5-0.2-1.1-0.4-1.9-0.4c-0.4,0-0.9,0.1-1.3,0.2
		c-0.4,0.1-0.7,0.3-1,0.5c-0.3,0.2-0.5,0.5-0.7,0.8c-0.2,0.3-0.3,0.7-0.3,1.1c0,0.4,0.1,0.8,0.2,1.1c0.1,0.3,0.3,0.5,0.6,0.7
		c0.2,0.2,0.5,0.4,0.9,0.5c0.3,0.1,0.7,0.2,1.1,0.3c0.4,0.1,0.8,0.2,1,0.3c0.3,0.1,0.5,0.2,0.6,0.3c0.1,0.1,0.2,0.2,0.3,0.3
		c0.1,0.1,0.1,0.2,0.1,0.4c0,0.3-0.1,0.6-0.4,0.7c-0.3,0.2-0.7,0.2-1.2,0.2c-0.4,0-0.9-0.1-1.2-0.2c-0.4-0.2-0.7-0.4-1.1-0.8
		l-1.3,1.1c0.3,0.5,0.8,0.9,1.4,1.2c0.6,0.3,1.3,0.4,2.1,0.4c0.6,0,1.2-0.1,1.6-0.2c0.4-0.1,0.8-0.3,1.1-0.6
		c0.3-0.2,0.5-0.5,0.6-0.9C137,55.5,137,55.1,137,54.7L137,54.7z"/>
	<path fill-rule="evenodd" clip-rule="evenodd" fill="#FFFFFF" d="M144.8,54.7c0-0.5-0.1-0.9-0.3-1.2c-0.2-0.3-0.4-0.6-0.7-0.8
		c-0.3-0.2-0.6-0.4-1-0.5c-0.4-0.1-0.7-0.2-1.1-0.3c-0.4-0.1-0.7-0.2-0.9-0.2c-0.2-0.1-0.4-0.1-0.6-0.2c-0.1-0.1-0.2-0.2-0.3-0.3
		c-0.1-0.1-0.1-0.2-0.1-0.4c0-0.1,0-0.2,0.1-0.3c0-0.1,0.1-0.2,0.2-0.3c0.1-0.1,0.2-0.1,0.4-0.2c0.2,0,0.4-0.1,0.6-0.1
		c0.4,0,0.8,0.1,1.1,0.2c0.3,0.2,0.6,0.4,0.9,0.7l1.3-1.2c-0.4-0.4-0.9-0.8-1.4-1c-0.5-0.2-1.1-0.4-1.9-0.4c-0.4,0-0.9,0.1-1.3,0.2
		c-0.4,0.1-0.7,0.3-1,0.5c-0.3,0.2-0.5,0.5-0.7,0.8c-0.2,0.3-0.3,0.7-0.3,1.1c0,0.4,0.1,0.8,0.2,1.1c0.1,0.3,0.3,0.5,0.6,0.7
		c0.3,0.2,0.5,0.4,0.9,0.5c0.3,0.1,0.7,0.2,1.1,0.3c0.4,0.1,0.8,0.2,1,0.3c0.3,0.1,0.5,0.2,0.6,0.3c0.1,0.1,0.2,0.2,0.3,0.3
		c0.1,0.1,0.1,0.2,0.1,0.4c0,0.3-0.1,0.6-0.4,0.7c-0.3,0.2-0.7,0.2-1.2,0.2c-0.4,0-0.9-0.1-1.2-0.2c-0.4-0.2-0.7-0.4-1.1-0.8
		l-1.3,1.1c0.3,0.5,0.8,0.9,1.4,1.2c0.6,0.3,1.3,0.4,2.1,0.4c0.6,0,1.2-0.1,1.6-0.2c0.4-0.1,0.8-0.3,1.1-0.6
		c0.3-0.2,0.5-0.5,0.6-0.9C144.7,55.5,144.8,55.1,144.8,54.7L144.8,54.7z"/>
	<path fill-rule="evenodd" clip-rule="evenodd" fill="#FFFFFF" d="M79.4,37.2h-1.8L74.1,46h2l0.7-2h3.4l0.7,2h2L79.4,37.2z
		 M77.4,42.4l0.6-1.6c0.1-0.3,0.2-0.5,0.3-0.8c0.1-0.2,0.1-0.4,0.2-0.6c0,0.2,0.1,0.4,0.2,0.6c0.1,0.2,0.2,0.5,0.3,0.8l0.6,1.6H77.4
		z"/>
	<path fill-rule="evenodd" clip-rule="evenodd" fill="#FFFFFF" d="M106.3,42.6c0.6-0.2,1.3-0.6,1.5-1c0.3-0.4,0.4-1,0.4-1.6
		c0-0.5-0.1-0.9-0.3-1.2c-0.2-0.3-0.4-0.6-0.7-0.9c-0.3-0.2-0.6-0.4-1-0.5c-0.4-0.1-0.8-0.2-1.2-0.2h-4.3V46h1.9v-3.2l1.7,0.1
		l1.9,3.1h2.1L106.3,42.6z M105.1,41.2h-2.4v-2.3h2.4c0.4,0,0.7,0.1,1,0.3c0.2,0.2,0.4,0.5,0.4,0.9C106.4,40.8,106,41.2,105.1,41.2z
		"/>
</g>
</svg>
