<?xml version="1.0" encoding="UTF-8" standalone="no"?>
<svg width="740px" height="137px" viewBox="0 0 740 137" version="1.1" xmlns="http://www.w3.org/2000/svg" xmlns:xlink="http://www.w3.org/1999/xlink" xmlns:sketch="http://www.bohemiancoding.com/sketch/ns">
    <!-- Generator: Sketch 3.1.1 (8761) - http://www.bohemiancoding.com/sketch -->
    <g id="Page-1" stroke="none" stroke-width="1" fill="none" fill-rule="evenodd" sketch:type="MSPage">
        <path d="M727.850841,19.7874937 C726.377359,61.5023962 691.966977,95 649.9,95 L409.9,95 L409.9,99 L649.9,99 C694.160515,99 730.366591,63.7138822 731.85256,19.8073125 C736.426247,18.8926998 739.9,14.8323225 739.9,10 C739.9,4.5 735.4,0 729.9,0 C724.4,0 719.9,4.5 719.9,10 C719.9,14.7982438 723.32493,18.8353919 727.850841,19.7874937 L727.850841,19.7874937 Z M371.9,19.797705 L371.9,116.889971 C378.192921,103.037373 391.600303,95 409.9,95 L409.9,99 C386.1,99 371.9,113.2 371.9,137 L371.9,136.999978 L371.9,147 L367.9,147 L367.9,137 C367.9,113.2 353.7,99 329.9,99 L329.9,95 C348.199697,95 361.607079,103.037373 367.9,116.889971 L367.9,19.797705 C363.349754,18.86459 359.9,14.815601 359.9,10 C359.9,4.5 364.4,0 369.9,0 C375.4,0 379.9,4.5 379.9,10 C379.9,14.815601 376.450246,18.86459 371.9,19.797705 L371.9,19.797705 Z M7.94743986,19.8073125 C9.43340949,63.7138822 45.6394848,99 89.9,99 L329.9,99 L329.9,95 L89.9,95 C47.833023,95 13.4226412,61.5023962 11.9491595,19.7874937 C16.4750696,18.8353919 19.9,14.7982438 19.9,10 C19.9,4.5 15.4,0 9.9,0 C4.4,0 -0.1,4.5 -0.1,10 C-0.1,14.8323225 3.37375313,18.8926998 7.94743986,19.8073125 L7.94743986,19.8073125 Z M-10,-10 L-10,147 L750,147 L750,-10 L-10,-10 Z M729.9,3.3 C726.2,3.3 723.2,6.3 723.2,10 C723.2,13.7 726.2,16.7 729.9,16.7 C733.6,16.7 736.6,13.7 736.6,10 C736.6,6.3 733.6,3.3 729.9,3.3 Z M370,3.3 C366.3,3.3 363.3,6.3 363.3,10 C363.3,13.7 366.3,16.7 370,16.7 C373.7,16.7 376.7,13.7 376.7,10 C376.7,6.3 373.7,3.3 370,3.3 Z M10.1,3.3 C6.4,3.3 3.4,6.3 3.4,10 C3.4,13.7 6.4,16.7 10.1,16.7 C13.8,16.7 16.8,13.7 16.8,10 C16.8,6.3 13.8,3.3 10.1,3.3 Z" id="Rectangle-3" fill="#FFFFFF" sketch:type="MSShapeGroup"></path>
    </g>
</svg>