<?xml version="1.0" encoding="UTF-8" standalone="no"?>
<svg width="515px" height="96px" viewBox="0 0 515 96" version="1.1" xmlns="http://www.w3.org/2000/svg" xmlns:xlink="http://www.w3.org/1999/xlink" xmlns:sketch="http://www.bohemiancoding.com/sketch/ns">
    <!-- Generator: Sketch 3.1.1 (8761) - http://www.bohemiancoding.com/sketch -->
    <g id="Page-1" stroke="none" stroke-width="1" fill="none" fill-rule="evenodd" sketch:type="MSPage">
        <g sketch:type="MSLayerGroup">
            <path d="M256.108108,96 L256.108108,96 L0,96 L0,0 L515,0 L515,96 L258.891892,96 C258.891892,79.3226277 268.774324,69.3722628 285.337838,69.3722628 L285.337838,66.5693431 C272.602238,66.5693431 263.271425,72.2013709 258.891892,81.9083008 L258.891892,12.6131387 L256.108108,12.6131387 L256.108108,81.9083008 C251.728575,72.2013709 242.397762,66.5693431 229.662162,66.5693431 L229.662162,69.3722628 C246.225676,69.3722628 256.108108,79.3226277 256.108108,96 L256.108108,96 Z M229.662162,69.3722628 L62.5832634,69.3722628 C31.1167375,69.3722628 5.49797297,43.5854015 5.49797297,11.9124088 L8.28262126,11.9124088 C8.28262126,42.0437956 32.648294,66.5693431 62.5832634,66.5693431 L229.662162,66.5693431 L229.662162,69.3722628 L229.662162,69.3722628 Z M452.364865,69.3722628 L285.337838,69.3722628 L285.337838,66.5693431 L452.364865,66.5693431 C482.290541,66.5693431 506.648649,42.0437956 506.648649,11.9124088 L509.432432,11.9124088 C509.432432,43.5854015 483.821622,69.3722628 452.364865,69.3722628 L452.364865,69.3722628 Z" id="Rectangle-3" fill="#FFFFFF" sketch:type="MSShapeGroup"></path>
            <path d="M13.8493243,7.00729927 C13.8493243,10.8613139 10.7175676,14.0145985 6.88986486,14.0145985 C3.06216216,14.0145985 -0.0695945946,10.8613139 -0.0695945946,7.00729927 C-0.0695945946,3.15328467 3.06216216,0 6.88986486,0 C10.7175676,0 13.8493243,3.15328467 13.8493243,7.00729927 L13.8493243,7.00729927 L13.8493243,7.00729927 Z M6.88986486,2.31240876 C4.31486486,2.31240876 2.22702703,4.41459854 2.22702703,7.00729927 C2.22702703,9.6 4.31486486,11.7021898 6.88986486,11.7021898 C9.46486486,11.7021898 11.5527027,9.6 11.5527027,7.00729927 C11.5527027,4.41459854 9.46486486,2.31240876 6.88986486,2.31240876 L6.88986486,2.31240876 L6.88986486,2.31240876 Z" id="Shape" fill="#0780E2" sketch:type="MSShapeGroup"></path>
            <path d="M264.389865,7.00729927 C264.389865,10.8613139 261.258108,14.0145985 257.430405,14.0145985 C253.602703,14.0145985 250.470946,10.8613139 250.470946,7.00729927 C250.470946,3.15328467 253.602703,0 257.430405,0 C261.258108,0 264.389865,3.15328467 264.389865,7.00729927 L264.389865,7.00729927 L264.389865,7.00729927 Z M257.430405,2.31240876 C254.855405,2.31240876 252.767568,4.41459854 252.767568,7.00729927 C252.767568,9.6 254.855405,11.7021898 257.430405,11.7021898 C260.005405,11.7021898 262.093243,9.6 262.093243,7.00729927 C262.093243,4.41459854 260.005405,2.31240876 257.430405,2.31240876 L257.430405,2.31240876 L257.430405,2.31240876 Z" id="Shape" fill="#0780E2" sketch:type="MSShapeGroup"></path>
            <path d="M514.930405,7.00729927 C514.930405,10.8613139 511.798649,14.0145985 507.970946,14.0145985 C504.143243,14.0145985 501.011486,10.8613139 501.011486,7.00729927 C501.011486,3.15328467 504.143243,0 507.970946,0 C511.798649,0 514.930405,3.15328467 514.930405,7.00729927 L514.930405,7.00729927 L514.930405,7.00729927 Z M507.970946,2.31240876 C505.395946,2.31240876 503.308108,4.41459854 503.308108,7.00729927 C503.308108,9.6 505.395946,11.7021898 507.970946,11.7021898 C510.545946,11.7021898 512.633784,9.6 512.633784,7.00729927 C512.633784,4.41459854 510.545946,2.31240876 507.970946,2.31240876 L507.970946,2.31240876 L507.970946,2.31240876 Z" id="Shape" fill="#0780E2" sketch:type="MSShapeGroup"></path>
        </g>
</svg>