<?xml version="1.0" encoding="utf-8"?>
<!-- Generator: Adobe Illustrator 18.0.0, SVG Export Plug-In . SVG Version: 6.00 Build 0)  -->
<!DOCTYPE svg PUBLIC "-//W3C//DTD SVG 1.1//EN" "http://www.w3.org/Graphics/SVG/1.1/DTD/svg11.dtd">
<svg version="1.1" id="Layer_1" xmlns="http://www.w3.org/2000/svg" xmlns:xlink="http://www.w3.org/1999/xlink" x="0px" y="0px"
	 viewBox="0 0 935.8 293.1" enable-background="new 0 0 935.8 293.1" xml:space="preserve">
<g>
	<rect x="465.9" y="96.2" fill="#387CC0" width="4" height="116.9"/>
	<path fill="#387CC0" d="M427.9,177h-240c-45.2,0-82-36.8-82-82h4c0,43,35,78,78,78h240V177z"/>
	<path fill="#387CC0" d="M747.9,177h-240v-4h240c43,0,78-35,78-78h4C829.9,140.2,793.1,177,747.9,177z"/>
	<path fill="#387CC0" d="M469.9,215h-4c0-25.9,16.1-42,42-42v4C484.1,177,469.9,191.2,469.9,215z"/>
	<path fill="#387CC0" d="M469.9,215h-4c0-23.8-14.2-38-38-38v-4C453.8,173,469.9,189.1,469.9,215z"/>
	<path fill="#387CC0" d="M117.9,88c0,5.5-4.5,10-10,10c-5.5,0-10-4.5-10-10c0-5.5,4.5-10,10-10C113.4,78,117.9,82.5,117.9,88z
		 M107.9,81.3c-3.7,0-6.7,3-6.7,6.7c0,3.7,3,6.7,6.7,6.7c3.7,0,6.7-3,6.7-6.7C114.6,84.3,111.6,81.3,107.9,81.3z"/>
	<path fill="#387CC0" d="M477.9,88c0,5.5-4.5,10-10,10c-5.5,0-10-4.5-10-10c0-5.5,4.5-10,10-10C473.4,78,477.9,82.5,477.9,88z
		 M467.9,81.3c-3.7,0-6.7,3-6.7,6.7c0,3.7,3,6.7,6.7,6.7c3.7,0,6.7-3,6.7-6.7C474.6,84.3,471.6,81.3,467.9,81.3z"/>
	<path fill="#387CC0" d="M837.9,88c0,5.5-4.5,10-10,10c-5.5,0-10-4.5-10-10c0-5.5,4.5-10,10-10C833.4,78,837.9,82.5,837.9,88z
		 M827.9,81.3c-3.7,0-6.7,3-6.7,6.7c0,3.7,3,6.7,6.7,6.7c3.7,0,6.7-3,6.7-6.7C834.6,84.3,831.6,81.3,827.9,81.3z"/>
</g>
</svg>
