<?xml version="1.0" encoding="UTF-8" standalone="no"?>
<svg width="740px" height="137px" viewBox="0 0 740 137" version="1.1" xmlns="http://www.w3.org/2000/svg" xmlns:xlink="http://www.w3.org/1999/xlink" xmlns:sketch="http://www.bohemiancoding.com/sketch/ns">
    <!-- Generator: Sketch 3.1.1 (8761) - http://www.bohemiancoding.com/sketch -->
    <g id="Page-1" stroke="none" stroke-width="1" fill="none" fill-rule="evenodd" sketch:type="MSPage">
        <path d="M368,137 L368,137 L0,137 L0,0 L740,0 L740,137 L372,137 L372,137 C372,113.2 386.2,99 410,99 L410,95 C391.700303,95 378.292921,103.037373 372,116.889971 L372,18 L368,18 L368,116.889971 C361.707079,103.037373 348.299697,95 330,95 L330,99 C353.8,99 368,113.2 368,137 Z M330,99 L89.9254658,99 C44.7114286,99 7.9,62.2 7.9,17 L11.9012422,17 C11.9012422,60 46.9121118,95 89.9254658,95 L330,95 L330,99 Z M650,99 L410,99 L410,95 L650,95 C693,95 728,60 728,17 L732,17 C732,62.2 695.2,99 650,99 Z" id="Rectangle-3" fill="#FFFFFF" sketch:type="MSShapeGroup"></path>
        <path d="M19.9,10 C19.9,15.5 15.4,20 9.9,20 C4.4,20 -0.1,15.5 -0.1,10 C-0.1,4.5 4.4,0 9.9,0 C15.4,0 19.9,4.5 19.9,10 L19.9,10 Z M9.9,3.3 C6.2,3.3 3.2,6.3 3.2,10 C3.2,13.7 6.2,16.7 9.9,16.7 C13.6,16.7 16.6,13.7 16.6,10 C16.6,6.3 13.6,3.3 9.9,3.3 L9.9,3.3 Z" id="Shape" fill="#0780E2" sketch:type="MSShapeGroup"></path>
        <path d="M379.9,10 C379.9,15.5 375.4,20 369.9,20 C364.4,20 359.9,15.5 359.9,10 C359.9,4.5 364.4,0 369.9,0 C375.4,0 379.9,4.5 379.9,10 L379.9,10 Z M369.9,3.3 C366.2,3.3 363.2,6.3 363.2,10 C363.2,13.7 366.2,16.7 369.9,16.7 C373.6,16.7 376.6,13.7 376.6,10 C376.6,6.3 373.6,3.3 369.9,3.3 L369.9,3.3 Z" id="Shape" fill="#0780E2" sketch:type="MSShapeGroup"></path>
        <path d="M739.9,10 C739.9,15.5 735.4,20 729.9,20 C724.4,20 719.9,15.5 719.9,10 C719.9,4.5 724.4,0 729.9,0 C735.4,0 739.9,4.5 739.9,10 L739.9,10 Z M729.9,3.3 C726.2,3.3 723.2,6.3 723.2,10 C723.2,13.7 726.2,16.7 729.9,16.7 C733.6,16.7 736.6,13.7 736.6,10 C736.6,6.3 733.6,3.3 729.9,3.3 L729.9,3.3 Z" id="Shape" fill="#0780E2" sketch:type="MSShapeGroup"></path>
    </g>
</svg>