<?xml version="1.0" encoding="iso-8859-1"?>
<!DOCTYPE svg PUBLIC "-//W3C//DTD SVG 1.1//EN" "http://www.w3.org/Graphics/SVG/1.1/DTD/svg11.dtd">
<svg version="1.1" xmlns="http://www.w3.org/2000/svg" xmlns:xlink="http://www.w3.org/1999/xlink" x="0px" y="0px" viewBox="0 0 200 40" xml:space="preserve">

<path style="fill:transparent;" d="M20,39.25C9.386,39.25,0.75,30.614,0.75,20S9.386,0.75,20,0.75h160c10.614,0,19.25,8.636,19.25,19.25S190.614,39.25,180,39.25H20z"/>

<defs>
	<polygon id="polyclip" points="-42.167,40 -230,40 -190,0 -2.167,0"/>
</defs>
<clipPath id="clipper">
	<use xlink:href="#polyclip"  style="overflow:visible;"/>
</clipPath>
<g style="opacity:0.6;clip-path:url(#clipper);">
	<path style="fill:#FFFFFF;" d="M200,20c0,11.046-8.954,20-20,20H20C8.954,40,0,31.046,0,20l0,0C0,8.954,8.954,0,20,0h160C191.046,0,200,8.954,200,20L200,20z"/>
</g>
<animateTransform xlink:href="#polyclip" attributeName="transform" type="translate" from="-1000 0" to="2500 0" begin="0s" dur="4s" repeatCount="indefinite" />
</svg>

