<?xml version="1.0" encoding="utf-8"?>
<!-- Generator: Adobe Illustrator 18.0.0, SVG Export Plug-In . SVG Version: 6.00 Build 0)  -->
<!DOCTYPE svg PUBLIC "-//W3C//DTD SVG 1.1//EN" "http://www.w3.org/Graphics/SVG/1.1/DTD/svg11.dtd">
<svg version="1.1" id="Layer_1" xmlns="http://www.w3.org/2000/svg" xmlns:xlink="http://www.w3.org/1999/xlink" x="0px" y="0px"
	 viewBox="0 0 284.2 150.2" enable-background="new 0 0 284.2 150.2" xml:space="preserve">
<g>
	<ellipse fill="#F2F2F2" cx="129.1" cy="135.3" rx="114.1" ry="4.8"/>
	<rect x="88.2" y="113.8" fill="#090909" width="175.6" height="9.7"/>
	<rect x="263" y="121.2" fill="#090909" width="8.2" height="2.3"/>
	<polygon fill="#090909" points="28.9,124 34.5,120.4 54,129.7 62.1,125.1 60.1,104.9 41.2,100.6 27.1,107.5 	"/>
	<polygon fill="#090909" points="203.3,123.1 197.5,123.1 173.8,123.1 169.4,122 170.6,102.8 183.4,99.1 197.6,102.1 207.3,107.7 
		210.9,115.9 202.9,119.2 	"/>
	<circle fill="#282828" cx="45" cy="122.7" r="13.2"/>
	<circle fill="#AEAEAE" cx="45" cy="122.7" r="7.7"/>
	<circle fill="#282828" cx="45" cy="122.7" r="3.9"/>
	<circle fill="#282828" cx="186.1" cy="122.7" r="13.2"/>
	<circle fill="#AEAEAE" cx="186.1" cy="122.7" r="7.7"/>
	<circle fill="#282828" cx="186.1" cy="122.7" r="3.9"/>
	<path fill="#282828" d="M60,115.1l-1.9,0.1c1.7,4.4,2.3,9.4,2.7,13.5h2.9l1.1-0.6l-0.4-3.8l-1-0.1L60,115.1z"/>
	<path fill="#282828" d="M20.1,108.1c0,0-1.4,0-2.3-0.6l-1.4,2l1.4,4.8l-0.1,1.5c0,0,0,4.4,8,6c0,0,2.3,0.3,3.3,2.2l0.7-0.3
		l-0.1-0.9c0,0,0.1-8.8,5.3-13.9l-3.9-0.7H20.1z"/>
	<path fill="#E5E5E5" d="M204.9,99.7l-0.1-3.7h4.6c0-1.4,0-2.8-0.1-4.3h-4.5l0.1-5.4l4.2,0.2c0-0.1,0-0.2,0-0.4
		c-0.4-8.4-1.6-20-4.1-30c0,0-4.5-1-9.4-1.1c-4.8-0.1-60.7-1-102.2,0.7c0,0-21.5-0.1-27.7,6.7L45,83.2l-3.9,1.6l-15.2,7.7
		c0,0-6.7,3.4-7.3,7.3c0,0-0.8,2.8-0.7,7.8l-0.1,0.1c1,0.5,2.3,0.6,2.3,0.6H31l3.9,0.7c2.1-2.1,5.1-3.5,9.2-3.5
		c4.2,0,7.3,1.2,9.6,3.1l4.6-0.9l101.4-0.9c2.9-3.2,7-5.4,13.1-5.2c6,0.2,9.8,2.2,12.2,4.9l19.3-0.4l0.3,0l0.2-2.6l4.7-0.2
		c0-1,0-2.1,0-3.5H204.9z"/>
	<path fill="none" stroke="#919191" stroke-miterlimit="10" d="M201.4,55.8c0,0,4.8,29,3.2,50.9"/>
	<path fill="#AEAEAE" d="M57.9,114.6c0.1,0.2,0.2,0.4,0.2,0.6l1.9-0.1l3.5,9.1l1,0.1l0-0.5l28.1-0.3v-9.2L57.9,114.6z"/>
	<path fill="#AEAEAE" d="M96.6,39.5"/>
	<path fill="#FFFFFF" d="M54.9,84.2c-4.5,0-2.1-3.2-2.1-3.2c4.1-4.9,9.4-10.8,14.7-15.5c0,0,0.3-0.3,1-0.8c0.4-0.3,1.1-0.6,1.9-1
		c2.6-1.1,7.1-2.3,15.1-2.5c0,0,3.7-0.2,3.4,2.6c0,0-0.8,11.4-2.4,15.1c-1.6,3.7-2.7,4.4-6.1,5L54.9,84.2z"/>
	<circle fill="#C8C8C8" cx="83.4" cy="91.3" r="2.2"/>
	<path fill="#282828" d="M80.5,93.5v-6.1c0-0.8,0.6-1.4,1.4-1.4h0.6c0.8,0,1.4,0.6,1.4,1.4v6.1c0,0.8-0.6,1.4-1.4,1.4h-0.6
		C81.1,94.9,80.5,94.3,80.5,93.5z"/>
	<line fill="none" stroke="#919191" stroke-miterlimit="10" x1="92.9" y1="55.8" x2="92.9" y2="108.2"/>
	<line fill="none" stroke="#919191" stroke-miterlimit="10" x1="145.1" y1="54.7" x2="146.4" y2="110.6"/>
	<path fill="none" stroke="#919191" stroke-miterlimit="10" d="M52.8,82.8l0.5,20.1c0,0,3.8,1.5,5.8,5.4"/>
	<path fill="#282828" d="M53.6,108.4c1.9,1.6,3.3,3.8,4.3,6.1l97.6-0.9c0.9-2.4,2.2-4.9,4.1-7l-101.4,0.9L53.6,108.4z"/>
	<path fill="#F2F2F2" d="M263.4,17c0-3.9-3.1-3.1-3.1-3.1s-148.5,0-158.3,0s-9.4,9.4-9.4,9.4v91.2h4.1V23.1l0,0
		c0-0.7,0.2-2.7,1.4-3.9c0.8-0.9,2.1-1.3,4-1.3h157.4v96.6h4.1C263.4,114.5,263.4,20.9,263.4,17z"/>
	<path fill="#090909" d="M52.8,81c0,0-2.4,3.2,2.1,3.2l3.1,0l-3-5.8C54.2,79.3,53.5,80.2,52.8,81z"/>
	<path fill="#E5E5E5" d="M101.9,17.9c-1.8,0-3.1,0.4-4,1.3c-1.2,1.2-1.4,3.2-1.4,3.9l0,0v91.4h162.7V17.9H101.9z"/>
	<path fill="#333333" d="M25,98.9h-6.2c-0.1,0.3-0.2,0.6-0.2,0.8c0,0-0.8,2.8-0.7,7.8l-0.1,0.1c1,0.5,2.3,0.6,2.3,0.6h6.7
		c0-1.7,0-5.8,0-7.3C26.9,98.8,25,98.9,25,98.9z"/>
	<path fill="#EEA47D" d="M24.4,107.3h-4.4c-0.6,0-1.1-0.5-1.1-1.1v-0.5c0-0.6,0.5-1.1,1.1-1.1h4.4c0.6,0,1.1,0.5,1.1,1.1v0.5
		C25.5,106.8,25,107.3,24.4,107.3z"/>
	<path fill="#EEA47D" d="M103.9,113.8h-3.1c-0.4,0-0.8-0.4-0.8-0.8v-0.3c0-0.4,0.4-0.8,0.8-0.8h3.1c0.4,0,0.8,0.4,0.8,0.8v0.3
		C104.7,113.4,104.4,113.8,103.9,113.8z"/>
	<path fill="#EEA47D" d="M103.9,20.9h-3.1c-0.4,0-0.8-0.4-0.8-0.8v-0.3c0-0.4,0.4-0.8,0.8-0.8h3.1c0.4,0,0.8,0.4,0.8,0.8v0.3
		C104.7,20.5,104.4,20.9,103.9,20.9z"/>
	<path fill="#E84450" d="M256.8,113.8h-3.1c-0.4,0-0.8-0.4-0.8-0.8v-0.3c0-0.4,0.4-0.8,0.8-0.8h3.1c0.4,0,0.8,0.4,0.8,0.8v0.3
		C257.6,113.4,257.2,113.8,256.8,113.8z"/>
	<path fill="#E84450" d="M256.8,20.9h-3.1c-0.4,0-0.8-0.4-0.8-0.8v-0.3c0-0.4,0.4-0.8,0.8-0.8h3.1c0.4,0,0.8,0.4,0.8,0.8v0.3
		C257.6,20.5,257.2,20.9,256.8,20.9z"/>
	<rect x="202" y="118.6" fill="#090909" width="1.3" height="12"/>
	<g>
		<g>
			<path fill="#63676A" d="M217.1,82.8c0.6,0,1.2,0.5,1.2,1.2c0,0.7-0.5,1.2-1.2,1.2c-0.7,0-1.2-0.5-1.2-1.2
				C215.9,83.3,216.5,82.8,217.1,82.8z M217.1,85c0.6,0,1-0.4,1-1c0-0.6-0.4-1-1-1c-0.6,0-1,0.4-1,1C216.1,84.6,216.6,85,217.1,85z
				 M216.7,83.3l0.5,0c0.3,0,0.5,0.1,0.5,0.4c0,0.3-0.2,0.4-0.4,0.4l0.4,0.6l-0.2,0l-0.4-0.6l-0.2,0l0,0.6l-0.2,0L216.7,83.3z
				 M216.9,83.9l0.2,0c0.2,0,0.4,0,0.4-0.2c0-0.2-0.2-0.2-0.3-0.2l-0.3,0L216.9,83.9z"/>
		</g>
		<g>
			<path fill="#005CB9" d="M143.4,58.6l8.7,0c2,0,3.4,0.5,4.1,1c0.9,0.7,1.5,1.7,1.5,3.7c0,2.1-2,4.6-3.9,4.7l0,0
				c0.7,0.3,1.5,0.8,1.6,1.7s0,3.5,0,3.5c-0.2,1,0,2.1,0.3,2.6l-5.2,0c-0.1-0.5-0.1-1.3,0.1-3.3c0.3-2.8-1.2-2.7-2.3-2.7l-2,0
				l-1.2,6l-5.3,0L143.4,58.6z M147.2,66.1l3.3,0c1,0,1.9-0.6,1.9-1.7c0-1.1-0.6-1.5-1.5-1.5l-3.2,0L147.2,66.1z"/>
			<path fill="#005CB9" d="M166.1,58.4l5.3,0l2.5,17.4l-5,0l-0.3-2.3l-5.5,0l-1.4,2.3l-5.6,0L166.1,58.4z M167.6,64.6L167.6,64.6
				l-2.7,5l3.1,0L167.6,64.6z"/>
			<path fill="#005CB9" d="M178.7,58.4l7.3,0c4.1-0.1,6.9,2,6.5,6.1c-0.3,3.3-3.1,6-6.8,6l-4.1,0l-1.4,5.3l-5.3,0L178.7,58.4z
				 M182.5,66.4l2.9,0c0.7,0,1.9-0.5,1.9-1.8c0-1.4-1.4-1.5-2.8-1.5l-1.4,0L182.5,66.4z"/>
			<path fill="#005CB9" d="M195.8,58.4l5.3,0l-3.5,17.4l-5.3,0L195.8,58.4z"/>
			<path fill="#005CB9" d="M203.7,58.4l4.9,0c6.7-0.3,10.4,1.8,9.8,8.7c-0.5,6.1-4.6,8.7-10.1,8.7l-8.2,0L203.7,58.4z M206.5,71.4
				l2.7,0c2.1-0.1,3.7-1.8,4.1-4.3c0.4-2.6-0.7-4-2.7-4.1l-2.4,0L206.5,71.4z"/>
		</g>
		<polygon fill="#63676A" points="157.6,55.8 181.2,42.3 204.8,55.8 207.2,55.8 181.2,40.9 155.2,55.8 		"/>
		<polygon fill="#005CB9" points="181.2,38.9 210.7,55.8 218.2,55.8 181.2,34.6 144.2,55.8 151.7,55.8 		"/>
		<polygon fill="#005CB9" points="137.9,87.9 136.6,94.4 213.7,94.4 215.1,87.9 		"/>
		<g>
			<path fill="#63676A" d="M139.7,78.8l3.1,0c1.1,0,2,0.3,2,1.6c0,0.9-0.4,1.6-1.4,1.7v0c0.5,0.1,0.6,0.4,0.6,1c0,0.5,0,0.8,0,1.2
				c0,0.2,0,0.5,0.1,0.7l-1.6,0c0-0.1-0.1-0.2-0.1-0.4c0-0.3,0-0.7,0-1.1c0-0.6-0.2-0.8-0.8-0.8l-1.1,0l-0.5,2.3l-1.6,0L139.7,78.8z
				 M140.8,81.5l1.3,0c0.6,0,1.1-0.2,1.1-0.9c0-0.5-0.4-0.6-0.9-0.6l-1.2,0L140.8,81.5z"/>
			<path fill="#63676A" d="M146.1,78.8l5,0l-0.3,1.4l-3.4,0l-0.2,1l3.1,0l-0.3,1.3l-3.1,0l-0.2,1.2l3.4,0l-0.3,1.4l-5,0L146.1,78.8z
				"/>
			<path fill="#63676A" d="M152.5,82.9c0,0.7,0.4,0.9,1.1,0.9c0.7,0,0.9-0.3,0.9-0.6c0-0.6-0.9-0.7-1.6-0.9
				c-0.8-0.3-1.4-0.7-1.4-1.6c0-1.4,1.3-2,2.5-2c1.3,0,2.5,0.5,2.4,2l-1.6,0c0-0.2-0.1-0.4-0.2-0.5c-0.1-0.1-0.4-0.2-0.7-0.2
				c-0.4,0-0.8,0.2-0.8,0.6c0,0.4,0.3,0.4,1.1,0.7c0.9,0.2,1.9,0.7,1.9,1.9c0,1.1-1,2-2.8,2c-1.5,0-2.5-0.8-2.5-2.2L152.5,82.9z"/>
			<path fill="#63676A" d="M157.9,78.8l3.1,0c1.1,0,1.8,0.8,1.8,1.9c0,1.6-1.2,2.4-2.7,2.4l-1.4,0l-0.4,2l-1.6,0L157.9,78.8z
				 M158.9,81.6l1.1,0c0.8,0,1.1-0.4,1.1-0.9c0-0.6-0.5-0.7-1-0.7l-0.9,0L158.9,81.6z"/>
			<path fill="#63676A" d="M166.5,78.6c1.1,0,2.8,0.4,2.8,2.6c0,2.2-1.3,3.9-3.5,3.9c-1.7,0-2.7-1-2.7-2.8
				C163,80.3,164.3,78.6,166.5,78.6z M165.9,83.8c1.2,0,1.8-1.4,1.8-2.4c0-0.9-0.3-1.4-1.2-1.4c-1.3,0-1.8,1.4-1.8,2.4
				C164.6,83.2,165,83.8,165.9,83.8z"/>
			<path fill="#63676A" d="M170.7,78.8l1.7,0l1.5,4.1l0,0l0.8-4.1l1.6,0l-1.3,6.2l-1.7,0l-1.4-4.1h0l-0.8,4.1l-1.6,0L170.7,78.8z"/>
			<path fill="#63676A" d="M177.6,82.9c0,0.7,0.4,0.9,1.1,0.9c0.7,0,0.9-0.3,0.9-0.6c0-0.6-0.9-0.7-1.6-0.9
				c-0.8-0.3-1.4-0.7-1.4-1.6c0-1.4,1.3-2,2.5-2c1.3,0,2.5,0.5,2.4,2l-1.6,0c0-0.2-0.1-0.4-0.2-0.5c-0.1-0.1-0.4-0.2-0.7-0.2
				c-0.4,0-0.8,0.2-0.8,0.6c0,0.4,0.3,0.4,1.1,0.7c0.9,0.2,1.9,0.7,1.9,1.9c0,1.1-1,2-2.8,2c-1.5,0-2.5-0.8-2.5-2.2L177.6,82.9z"/>
			<path fill="#63676A" d="M183,78.8l5,0l-0.3,1.4l-3.4,0l-0.2,1l3.1,0l-0.3,1.3l-3.1,0l-0.2,1.2l3.4,0l-0.3,1.4l-5,0L183,78.8z"/>
			<path fill="#63676A" d="M196.3,80.2l-1.8,0l-1,4.8l-1.6,0l1-4.8l-1.8,0l0.3-1.4l5.3,0L196.3,80.2z"/>
			<path fill="#63676A" d="M197.3,78.8l5,0l-0.3,1.4l-3.4,0l-0.2,1l3.1,0l-0.3,1.3l-3.1,0l-0.2,1.2l3.4,0L201,85l-5,0L197.3,78.8z"
				/>
			<path fill="#63676A" d="M205,78.8l1.6,0l1,6.2l-1.6,0l-0.1-1.1l-2.2,0l-0.6,1.1l-1.7,0L205,78.8z M204.4,82.7l1.4,0l-0.2-2.2h0
				L204.4,82.7z"/>
			<path fill="#63676A" d="M209.5,78.8l2.2,0l0.3,4.5l0,0l2.2-4.4l2.2,0l-1.3,6.2l-1.5,0l1.2-5h0l-2.5,5l-1.3,0l-0.4-5h0l-0.9,5
				l-1.5,0L209.5,78.8z"/>
		</g>
		<rect x="150.8" y="44.6" fill="#005CB9" width="5.9" height="7.5"/>
	</g>
	<path fill="#282828" d="M56.1,75.7c0,0,0.1-0.7,2.4-0.5l0.9,6l1,5.8c0,0-3.2,1.6-4.4-0.8C56,86.2,55.5,77,56.1,75.7z"/>
</g>
</svg>
