<?xml version="1.0" encoding="utf-8"?>
<!-- Generator: Adobe Illustrator 18.0.0, SVG Export Plug-In . SVG Version: 6.00 Build 0)  -->
<!DOCTYPE svg PUBLIC "-//W3C//DTD SVG 1.1//EN" "http://www.w3.org/Graphics/SVG/1.1/DTD/svg11.dtd">
<svg version="1.1" id="Layer_1" xmlns="http://www.w3.org/2000/svg" xmlns:xlink="http://www.w3.org/1999/xlink" x="0px" y="0px"
	 viewBox="0 0 172.8 172.8" enable-background="new 0 0 172.8 172.8" xml:space="preserve">
<g>
	<circle fill="#EAEAEC" cx="86.4" cy="86.4" r="66.5"/>
	<g>
		<path fill="#0780E2" d="M71.5,99c0,0,7.6,6.9,16,6.9c3.4,0,7-1.3,7-5.3c0-7.5-30.5-8.2-30.5-28.3c0-10.5,7.5-18,17.9-20v-8.8h10.2
			V52c11.4,1.3,17.2,7.3,17.2,7.3l-6.9,13.4c0,0-6.8-5.9-14.8-5.9c-3.4,0-7.1,1.5-7.1,5.3c0,8,30.5,7.4,30.5,28.1
			c0,9.9-6.8,18.6-18.8,20.4v8.5H82v-8.5c-12.4-1.8-19.1-9.2-19.1-9.2L71.5,99z"/>
	</g>
</g>
</svg>
