<?xml version="1.0" encoding="utf-8"?>
<!-- Generator: Adobe Illustrator 18.0.0, SVG Export Plug-In . SVG Version: 6.00 Build 0)  -->
<!DOCTYPE svg PUBLIC "-//W3C//DTD SVG 1.1//EN" "http://www.w3.org/Graphics/SVG/1.1/DTD/svg11.dtd">
<svg version="1.1" id="Layer_1" xmlns="http://www.w3.org/2000/svg" xmlns:xlink="http://www.w3.org/1999/xlink" x="0px" y="0px"
	 viewBox="0 0 171.7 170.1" enable-background="new 0 0 171.7 170.1" xml:space="preserve">
<g>
	<circle fill="#387CC0" cx="85.7" cy="86.5" r="57.8"/>
	<path fill="#005CB9" d="M149.5,97.2l10.5-6.8l-9.6-7.9l8.6-9L147.8,68l6.3-10.8L142,54.4l3.7-11.9l-12.5,0.1l0.8-12.5l-12.1,3
		l-2.1-12.3l-11.1,5.7L103.9,15l-9.5,8.1L87,13.1l-7.4,10.1L70.1,15l-4.8,11.5l-11.1-5.7l-2.1,12.3l-12.1-3l0.8,12.5l-12.5-0.1
		L32,54.4l-12.2,2.8L26.2,68L15,73.5l8.6,9L14,90.4l10.5,6.8l-7.5,9.9l11.8,4.2l-5,11.4l12.4,1.3l-2.3,12.3l12.4-1.6l0.6,12.5
		l11.7-4.4l3.5,12l10.4-6.9l6.1,10.9l8.5-9.2l8.5,9.2l6.1-10.9l10.4,6.9l3.5-12l11.7,4.4l0.6-12.5l12.4,1.6l-2.3-12.3l12.4-1.3
		l-5-11.4l11.8-4.2L149.5,97.2z M30.4,86.5c0-30.8,24.9-55.7,55.7-55.7s55.7,24.9,55.7,55.7s-24.9,55.7-55.7,55.7
		S30.4,117.3,30.4,86.5z"/>
	<g>
		<path fill="#FFFFFF" d="M45.3,97.5l0.4,1.5l-6.3,1.8L39,99.4L45.3,97.5z"/>
		<path fill="#FFFFFF" d="M46.1,100.2l0.6,1.5l-2.1,2.9c-0.3,0.4-0.8,0.9-0.8,0.9l0,0c0,0,0.6-0.3,1-0.5l2.8-1.2l0.6,1.5l-6.1,2.5
			l-0.6-1.5l2.1-2.9c0.3-0.4,0.8-0.9,0.8-0.9l0,0c0,0-0.6,0.3-1,0.5l-2.8,1.2l-0.6-1.5L46.1,100.2z"/>
		<path fill="#FFFFFF" d="M48.7,106.2l0.9,1.4l-1.7,3.2c-0.2,0.4-0.7,1.1-0.7,1.1l0,0c0,0,0.6-0.4,0.9-0.6l2.6-1.6l0.8,1.4l-5.6,3.4
			l-0.8-1.4l1.7-3.2c0.2-0.4,0.7-1.1,0.7-1.1l0,0c0,0-0.6,0.4-0.9,0.6l-2.6,1.6l-0.8-1.4L48.7,106.2z"/>
		<path fill="#FFFFFF" d="M54.2,114c1.3,1.5,1.1,3.6-0.3,4.8c-1.5,1.3-3.6,1.1-4.8-0.4c-1.3-1.5-1.1-3.6,0.4-4.8
			C50.8,112.3,52.9,112.5,54.2,114z M50.2,117.5c0.6,0.7,1.8,0.8,2.6,0.1c0.8-0.7,0.9-1.8,0.3-2.6c-0.6-0.7-1.8-0.8-2.6-0.1
			C49.7,115.6,49.5,116.7,50.2,117.5z"/>
		<path fill="#FFFFFF" d="M56.2,116.5l1.3,1.1l-1.6,3.6c-0.2,0.4-0.5,1-0.5,1l0,0c0,0,0.5-0.4,0.9-0.6l3.3-2.1l1.3,1.1l-6,3.5
			l-1.3-1.1L56.2,116.5z"/>
		<path fill="#FFFFFF" d="M61,126.7l-1.7-1.1l-1.1,0.9l-1.4-0.9l5.5-4.3l1.4,0.9l-1.7,6.7l-1.4-0.9L61,126.7z M62.1,123.1
			c0,0-0.5,0.5-0.8,0.8l-1,0.9l1.1,0.7l0.4-1.3C61.9,123.8,62.1,123.1,62.1,123.1L62.1,123.1z"/>
		<path fill="#FFFFFF" d="M66,125.2l-1.8-0.9l0.6-1.2l5,2.5l-0.6,1.2l-1.8-0.9l-2.3,4.6l-1.4-0.7L66,125.2z"/>
		<path fill="#FFFFFF" d="M73.1,126.6c1.9,0.6,2.8,2.5,2.2,4.3c-0.6,1.8-2.4,2.8-4.3,2.2c-1.9-0.6-2.8-2.5-2.2-4.3
			C69.3,126.9,71.2,126,73.1,126.6z M71.4,131.6c0.9,0.3,1.9-0.3,2.3-1.3c0.3-1-0.2-2-1.1-2.3c-0.9-0.3-1.9,0.2-2.3,1.2
			C70,130.3,70.5,131.3,71.4,131.6z"/>
		<path fill="#FFFFFF" d="M76.9,127.8l2.3,0.4c0.7,0.1,1,0.2,1.2,0.4c0.7,0.4,1,1.1,0.9,2.1c-0.1,0.7-0.6,1.4-1.3,1.6l0,0
			c0,0,0.1,0.1,0.2,0.4l0.9,2.5l-1.8-0.3l-0.8-2.4l-0.7-0.1l-0.4,2.2l-1.6-0.3L76.9,127.8z M78.7,131.1c0.5,0.1,0.9-0.1,1-0.7
			c0.1-0.5-0.1-0.8-0.9-0.9l-0.5-0.1L78,131L78.7,131.1z"/>
		<path fill="#FFFFFF" d="M82.9,133.2c0,0,0.7,0.7,1.5,0.7c0.3,0,0.7-0.1,0.7-0.5c0-0.8-2.9-0.9-2.9-2.9c0-1.2,1.1-2,2.4-1.9
			c1.4,0.1,2.1,0.8,2.1,0.8l-0.7,1.3c0,0-0.6-0.6-1.4-0.6c-0.3,0-0.7,0.1-0.7,0.5c0,0.8,2.9,0.8,2.9,2.9c0,1.1-0.9,2-2.4,2
			c-1.5-0.1-2.4-1-2.4-1L82.9,133.2z"/>
		<path fill="#FFFFFF" d="M89.6,128.6l1.6-0.2l0.7,6.5l-1.6,0.2L89.6,128.6z"/>
		<path fill="#FFFFFF" d="M92.4,128.3L94,128l2.4,2.6c0.3,0.4,0.8,1,0.8,1l0,0c0,0-0.2-0.7-0.3-1.1l-0.7-3l1.6-0.3l1.4,6.4l-1.6,0.3
			l-2.4-2.6c-0.3-0.4-0.8-1-0.8-1l0,0c0,0,0.2,0.7,0.3,1.1l0.7,3l-1.6,0.3L92.4,128.3z"/>
		<path fill="#FFFFFF" d="M100.7,126.2l2.2-1c1.2-0.5,2.3-0.3,2.7,0.7c0.2,0.5,0.2,1.1-0.1,1.6l0,0c0.8-0.1,1.3,0.4,1.5,1
			c0.6,1.3-0.3,2.3-1.5,2.8l-2.2,1L100.7,126.2z M103.9,127.6c0.4-0.2,0.4-0.5,0.3-0.8c-0.1-0.3-0.4-0.4-0.8-0.3l-0.7,0.3l0.5,1.1
			L103.9,127.6z M105.1,129.9c0.4-0.2,0.5-0.6,0.4-0.9c-0.1-0.3-0.5-0.5-0.9-0.3l-0.9,0.4l0.5,1.2L105.1,129.9z"/>
		<path fill="#FFFFFF" d="M105.7,124l1.4-0.8l2.2,3.5c0.4,0.6,0.9,0.7,1.5,0.3s0.8-0.9,0.4-1.5L109,122l1.4-0.8l2.2,3.5
			c0.8,1.3,0.4,2.7-1,3.6c-1.4,0.9-2.9,0.5-3.7-0.7L105.7,124z"/>
		<path fill="#FFFFFF" d="M114.3,123.8c0,0,1,0.1,1.6-0.5c0.3-0.2,0.5-0.5,0.2-0.8c-0.5-0.6-2.8,1.3-4-0.3c-0.8-0.9-0.5-2.2,0.5-3
			c1.1-0.9,2.1-0.8,2.1-0.8l0.3,1.4c0,0-0.9,0-1.5,0.5c-0.3,0.2-0.5,0.6-0.2,0.8c0.5,0.6,2.7-1.3,4,0.3c0.7,0.8,0.6,2.1-0.5,3
			c-1.2,1-2.5,0.8-2.5,0.8L114.3,123.8z"/>
		<path fill="#FFFFFF" d="M115,117.2l1.1-1.1l4.6,4.7l-1.1,1.1L115,117.2z"/>
		<path fill="#FFFFFF" d="M117,115.3l1-1.3l3.5,0.5c0.5,0.1,1.2,0.3,1.2,0.3l0,0c0,0-0.6-0.4-0.9-0.7l-2.4-1.9l1-1.2l5.1,4.1l-1,1.3
			l-3.5-0.5c-0.5-0.1-1.2-0.3-1.2-0.3l0,0c0,0,0.6,0.4,0.9,0.7l2.4,1.9l-1,1.2L117,115.3z"/>
		<path fill="#FFFFFF" d="M121.1,110.1l2.1-3.5l1.2,0.7l-1.3,2.1l1,0.6l1-1.7l1.2,0.7l-1,1.7l1.1,0.6l1.4-2.3l1.2,0.7l-2.2,3.6
			L121.1,110.1z"/>
		<path fill="#FFFFFF" d="M127.9,107.4c0,0,0.9-0.4,1.3-1.1c0.1-0.3,0.2-0.7-0.2-0.8c-0.7-0.3-1.9,2.4-3.8,1.5
			c-1.1-0.5-1.4-1.8-0.9-2.9c0.6-1.3,1.6-1.6,1.6-1.6l0.9,1.2c0,0-0.8,0.4-1.1,1.1c-0.1,0.3-0.2,0.7,0.2,0.8
			c0.8,0.3,1.8-2.4,3.7-1.5c1,0.5,1.5,1.6,0.9,3c-0.6,1.4-1.8,1.8-1.8,1.8L127.9,107.4z"/>
		<path fill="#FFFFFF" d="M130.1,102.3c0,0,0.9-0.5,1.1-1.3c0.1-0.3,0.1-0.7-0.3-0.8c-0.7-0.2-1.6,2.6-3.5,2
			c-1.2-0.4-1.6-1.6-1.2-2.8c0.4-1.3,1.4-1.8,1.4-1.8l1,1c0,0-0.8,0.5-1,1.2c-0.1,0.3-0.1,0.7,0.3,0.8c0.8,0.3,1.6-2.6,3.5-2
			c1,0.3,1.7,1.4,1.2,2.8c-0.5,1.5-1.6,2-1.6,2L130.1,102.3z"/>
	</g>
	<path fill="#FFFFFF" d="M86.1,143.2c-31.2,0-56.6-25.4-56.6-56.6s25.4-56.6,56.6-56.6s56.6,25.4,56.6,56.6S117.3,143.2,86.1,143.2z
		 M86.1,31.8c-30.2,0-54.8,24.6-54.8,54.8s24.6,54.8,54.8,54.8s54.8-24.6,54.8-54.8S116.3,31.8,86.1,31.8z"/>
	<rect x="34.7" y="74.9" fill="#FFFFFF" width="102.8" height="12.9"/>
	<g>
		<path fill="#FFFFFF" d="M43.6,61.2l2.2-3.4l1.2,0.8l-1.4,2.1l1,0.7l1.1-1.7l1.2,0.8L47.8,62l1,0.7l1.4-2.2l1.2,0.8l-2.3,3.6
			L43.6,61.2z"/>
		<path fill="#FFFFFF" d="M46.9,56.3L48,55l3.5,0.6c0.5,0.1,1.2,0.3,1.2,0.3l0,0c0,0-0.6-0.4-0.9-0.7l-2.3-2l1.1-1.2l5,4.3l-1.1,1.2
			L50.9,57c-0.5-0.1-1.2-0.3-1.2-0.3l0,0c0,0,0.6,0.4,0.9,0.7l2.3,2l-1.1,1.2L46.9,56.3z"/>
		<path fill="#FFFFFF" d="M53.9,50.8l-1.5,1.3l-0.9-1l4.2-3.7l0.9,1l-1.5,1.3l3.4,3.9l-1.2,1.1L53.9,50.8z"/>
		<path fill="#FFFFFF" d="M56.8,46.7l3.4-2.3l0.8,1.1l-2.1,1.4l0.7,1l1.7-1.1l0.8,1.1l-1.7,1.1l0.7,1l2.2-1.5l0.8,1.1l-3.5,2.4
			L56.8,46.7z"/>
		<path fill="#FFFFFF" d="M61.7,43.5l2-1c0.6-0.3,0.9-0.4,1.2-0.4c0.8-0.1,1.5,0.3,1.9,1.2c0.3,0.6,0.4,1.5-0.1,2l0,0
			c0,0,0.1,0.1,0.4,0.2l2.2,1.5l-1.6,0.8l-2-1.5l-0.7,0.3l1,2l-1.4,0.7L61.7,43.5z M65.1,45.1c0.5-0.2,0.6-0.6,0.4-1.1
			c-0.2-0.4-0.5-0.6-1.2-0.3L63.8,44l0.7,1.4L65.1,45.1z"/>
		<path fill="#FFFFFF" d="M67.8,40.5l2.6-0.9c1.2-0.4,2.3,0.2,2.8,1.4c0.4,1.2-0.1,2.4-1.3,2.9l-1.1,0.4l0.7,1.9L70,46.7L67.8,40.5z
			 M71.1,42.7c0.5-0.2,0.7-0.6,0.5-1.1c-0.2-0.5-0.5-0.7-1.1-0.6l-0.8,0.3l0.6,1.7L71.1,42.7z"/>
		<path fill="#FFFFFF" d="M73.9,38.6l2.2-0.5c0.7-0.1,1-0.2,1.3-0.1c0.8,0.1,1.4,0.7,1.6,1.6c0.1,0.7,0,1.5-0.6,1.9l0,0
			c0,0,0.1,0.1,0.3,0.3l1.7,2l-1.8,0.4L77,42.4l-0.7,0.1l0.4,2.2L75.2,45L73.9,38.6z M76.7,41c0.5-0.1,0.8-0.4,0.7-1
			c-0.1-0.5-0.3-0.7-1.1-0.6l-0.5,0.1l0.3,1.6L76.7,41z"/>
		<path fill="#FFFFFF" d="M80.4,37.4l1.6-0.2l0.6,6.5L81.1,44L80.4,37.4z"/>
		<path fill="#FFFFFF" d="M84.3,41.7c0,0,0.8,0.7,1.6,0.7c0.3,0,0.7-0.1,0.7-0.5c0-0.8-3-0.7-3-2.7c0-1.2,1-2,2.3-2
			c1.4,0,2.1,0.7,2.1,0.7L87.3,39c0,0-0.7-0.6-1.5-0.6c-0.3,0-0.7,0.2-0.7,0.5c0,0.8,3,0.6,3,2.7c0,1.1-0.8,2.1-2.3,2.1
			c-1.5,0-2.4-0.9-2.4-0.9L84.3,41.7z"/>
		<path fill="#FFFFFF" d="M89.7,37.2l4.1,0.5L93.6,39l-2.5-0.3L91,39.9l2,0.2l-0.2,1.4l-2-0.2l-0.1,1.2l2.6,0.3l-0.2,1.4L89,43.7
			L89.7,37.2z"/>
		<path fill="#FFFFFF" d="M97.8,38.5l3.9,1.1l-0.4,1.3l-2.3-0.7l-0.4,1.3l1.9,0.5l-0.4,1.3l-1.9-0.5l-0.7,2.3L96,44.8L97.8,38.5z"/>
		<path fill="#FFFFFF" d="M103,40l1.5,0.6l-1.9,4.8l2.5,1l-0.5,1.3l-4-1.6L103,40z"/>
		<path fill="#FFFFFF" d="M110.9,43.6c1.7,1,2.2,3,1.3,4.6c-1,1.7-3,2.2-4.7,1.3c-1.7-1-2.2-3-1.3-4.7
			C107.2,43.2,109.1,42.6,110.9,43.6z M108.2,48.2c0.9,0.5,2,0.2,2.5-0.8c0.5-0.9,0.3-2-0.6-2.5c-0.9-0.5-1.9-0.2-2.5,0.7
			C107.1,46.6,107.4,47.8,108.2,48.2z"/>
		<path fill="#FFFFFF" d="M115.1,46.5l1.8,1.4c0.5,0.4,0.7,0.7,0.9,0.9c0.4,0.7,0.3,1.5-0.2,2.2c-0.4,0.5-1.2,0.9-1.9,0.8l0,0
			c0,0,0,0.2-0.1,0.5l-0.4,2.6l-1.4-1.1l0.5-2.5l-0.6-0.5l-1.4,1.7l-1.3-1L115.1,46.5z M115.1,50.2c0.4,0.3,0.8,0.3,1.2-0.1
			c0.3-0.4,0.4-0.7-0.3-1.2l-0.4-0.3l-1,1.2L115.1,50.2z"/>
		<path fill="#FFFFFF" d="M120.2,50.8l1.1,1.1l-4.6,4.7l-1.1-1.1L120.2,50.8z"/>
		<path fill="#FFFFFF" d="M122.8,53.3l1.5,1.8c1.3,1.6,1.2,3.4-0.4,4.7c-1.6,1.3-3.4,1.1-4.7-0.5l-1.5-1.8L122.8,53.3z M120.2,58.3
			c0.7,0.9,1.6,1,2.6,0.2c1-0.8,1-1.7,0.3-2.6l-0.4-0.5l-3,2.4L120.2,58.3z"/>
		<path fill="#FFFFFF" d="M124.5,64.6l-1.1-1.8l-1.4,0.4l-0.9-1.4l6.8-1.5l0.9,1.4l-4.5,5.3l-0.9-1.4L124.5,64.6z M127.1,61.8
			c0,0-0.7,0.2-1.1,0.4l-1.3,0.3l0.7,1.1l0.9-1C126.6,62.3,127.2,61.8,127.1,61.8L127.1,61.8z"/>
	</g>
	<polygon fill="#FFFFFF" points="70.2,99.9 70.2,99.7 70.3,99.3 70.1,99 69.8,98.9 69.5,98.3 69.6,98 69.9,97.8 73.2,97.8 
		78.7,97.6 79,98.3 79.1,98.5 79.2,98.8 88.3,99 88.6,99.2 88.7,99.7 89,99.8 89.2,99.6 89.3,99.1 89.3,98.8 89.2,98.5 89.2,98.3 
		89.3,98 89.4,98 89.6,97.8 89.9,98 90.6,98.2 90.8,98.2 90.9,98.2 91.1,98.2 91.4,98.3 91.3,98.9 91.1,98.7 91.2,99 91.5,99.2 
		91.6,99.5 91.6,100 91.8,100.5 91.9,100.8 92.2,101.8 92.5,102.7 93.2,104.1 94.5,106.1 95,106.7 95.1,106.9 95.2,107.2 95,107.5 
		95,108 95.1,108.5 95.2,108.8 95.7,109.6 95.5,109.3 95,108.4 94.9,107.6 95,107.1 95,106.8 94.8,106.6 94.5,106.7 94.3,106.4 
		94.3,106.2 94.1,106 94,106 94.1,106.5 94.4,107.3 94.5,107.6 95.2,108.9 96.1,110.5 96.4,111.4 96.7,112 96.7,112.2 96.6,112.3 
		96.7,112.3 96.9,112.4 97.3,113 97.3,113.3 97.4,113.4 97.6,114.4 97.6,115.6 97.6,115.9 97.5,116.7 97.5,117.2 97.6,117.6 
		97.5,117.8 97.5,117.5 97.4,117.8 97.4,118.1 97.1,118.3 97.1,118.5 96.9,118.8 97,119 96.9,119.2 97,119.7 96.8,119.9 96.7,120.2 
		96.8,120.5 96.4,120.3 96.6,120.5 96.3,120.3 96,120.4 95.8,120.6 95.6,120.7 95.3,120.7 95,120.6 94.7,120.8 94.1,120.9 
		93.9,120.6 93.8,120.4 94.1,120.2 94.3,120.4 94.6,120.6 94.8,120.3 94.5,120.1 94.3,120.1 94,120 93.6,119.4 93.5,119.1 
		93.3,118.6 93,118.4 93,118.2 92.5,117.9 92.3,117.9 92.1,117.8 91.8,117.9 91.5,117.7 91.8,117.6 91.6,117.6 91.2,117 91,116 
		90.8,115.8 90.5,115.7 90.5,115.5 90.8,115.3 90.8,115 91.2,114.7 90.8,114.9 90.7,115.1 90.4,115.4 90.2,115.4 90.2,115.2 
		90.1,115 90.1,114.7 90.2,114.2 90,113.9 90.3,113.7 90.2,113.7 89.7,113.9 89.6,113.7 89.4,113.6 89.6,113.8 89.7,114.1 
		89.8,114.4 89.7,114.3 89.4,114.3 89.2,114.2 88.8,113.7 88.7,113.5 88.2,112.5 88.2,112.4 88.1,112.1 87.6,111.8 87.5,111.5 
		87.7,111.8 87.7,111.6 88,111.5 88.1,111.1 88.6,110.3 88.6,110.1 88.4,109.8 88.1,110.1 88.1,109.8 87.5,109.5 87.5,109.5 
		87.7,109.7 87.7,110 87.7,110.1 88,110.1 87.8,110.6 87.6,110.8 87.6,110.7 87.1,110.4 87.4,110.8 87.1,110.5 87,110.2 87.1,109.8 
		87.2,109.2 87.1,109 87.5,107.7 87.6,107.4 87.5,107.1 87.5,106.3 87.5,106.2 87.5,105.9 87.2,105.8 87.1,105.5 87.1,105.3 
		86.7,104.8 86.2,104.8 85.9,104.7 85.8,104.5 85.6,104.3 85.4,104 84.7,103.4 84.7,103.2 84.6,102.9 84,102.6 83.7,102 83.2,101.6 
		82.9,101.6 82.4,101.2 82.2,101.2 82,101.3 81.4,101.3 81.2,101.4 81,101.7 81.1,101.8 80.8,101.7 81.1,101.9 81.2,102.1 80.9,102 
		80.7,102.1 80.4,102.1 79.6,102.7 79.3,102.7 79.3,102.6 79,102.8 78.9,102.9 78.7,102.9 78.1,103 78,103.1 77.7,103.1 77.5,103 
		77.4,102.7 77.5,102.4 77.5,102.7 77.5,103 77.8,102.9 77.8,102.6 77.6,102.4 77.4,102.1 77.2,102 76.9,101.8 77,101.8 76.9,101.7 
		76.7,101.5 76.5,101.3 77,101.5 77.2,101.7 77.4,101.6 77.1,101.6 77,101.3 76.7,101.3 76.3,101 76.5,100.8 76.7,100.7 76.8,100.5 
		76.3,100.8 76.1,100.6 75.8,100.6 76,100.8 76.2,101 76.2,101.3 75.7,100.9 75.1,100.6 74,100.3 73.8,100.3 73.5,100.2 74.1,100.3 
		74.1,100.1 74.4,100.1 74.7,100.2 74.9,100.3 74.8,100.1 74.3,99.8 74.1,99.9 73.8,100 73.7,99.7 73.2,100.2 73,100.2 72.3,100.2 
		71.5,100.3 71.2,100.3 71.3,100.3 71.7,100.2 72,100 71.7,99.7 71.7,99.4 71.5,99.7 71.4,100 71.3,99.6 71.1,99.8 71.1,99.8 
		71.2,99.9 71,100.2 70.8,100.5 70.5,100.6 70.2,100.7 70.1,100.6 70.2,100.4 70.5,100.2 70.5,100 	"/>
	<path fill="#005CB9" d="M68.9,79.3h-0.7v2.1h0.9c0.7,0,1.1-0.4,1.1-1.1C70.2,79.7,70,79.3,68.9,79.3z"/>
	<path fill="#005CB9" d="M77.4,79.3h-0.9v5.1h0.9c1.5,0,2.4-0.9,2.4-2.6C79.9,80.1,78.9,79.3,77.4,79.3z"/>
	<path fill="#005CB9" d="M40.9,79.4L40.9,79.4c0,0-0.2,1-0.4,1.5L40,82.7h1.7l-0.5-1.7C41.1,80.4,40.9,79.4,40.9,79.4z"/>
	<path fill="#005CB9" d="M60.9,79.4L60.9,79.4c0,0-0.2,1-0.4,1.5L60,82.7h1.7l-0.5-1.7C61.1,80.4,60.9,79.4,60.9,79.4z"/>
	<path fill="#005CB9" d="M23.7,72.9C23,82.2,26.4,91,26.4,91h119.4c2.6-11.4,2.7-18.2,2.7-18.2H23.7z M42.8,86.2l-0.5-1.8h-2.7
		l-0.5,1.8h-2.2l3-8.8H42l3,8.8H42.8z M52.1,86.2L51,81.8c-0.1-0.6-0.2-1-0.2-1h0c0,0,0,0.5-0.2,1l-1.1,4.5h-2.4L45,77.4h2.3
		l1.1,5.5c0.1,0.5,0.1,0.9,0.1,0.9h0c0,0,0-0.4,0.1-0.9l1.4-5.5h1.7l1.3,5.5c0.1,0.5,0.1,0.9,0.1,0.9h0c0,0,0-0.4,0.1-0.9l1.2-5.5
		h2.2l-2.2,8.8H52.1z M62.8,86.2l-0.5-1.8h-2.7L59,86.2h-2.2l3-8.8H62l3,8.8H62.8z M70.7,86.2l-1.6-3h-1v3H66v-8.8h3.1
		c0.9,0,1.3,0.1,1.7,0.2c1,0.4,1.6,1.3,1.6,2.6c0,0.9-0.4,2-1.3,2.4v0c0,0,0.1,0.2,0.3,0.5l1.7,3.1H70.7z M77.5,86.2h-3.1v-8.8h3.1
		c2.8,0,4.5,1.6,4.5,4.4C82.1,84.6,80.3,86.2,77.5,86.2z M95.2,86.2h-2.4l-1.1-4.5c-0.1-0.6-0.2-1-0.2-1h0c0,0,0,0.5-0.2,1l-1.1,4.5
		h-2.4l-2.1-8.8h2.3l1.1,5.5c0.1,0.5,0.1,0.9,0.1,0.9h0c0,0,0-0.4,0.1-0.9l1.4-5.5h1.7l1.3,5.5c0.1,0.5,0.1,0.9,0.1,0.9h0
		c0,0,0-0.4,0.1-0.9l1.2-5.5h2.2L95.2,86.2z M100.9,86.2h-2.2v-8.8h2.2V86.2z M110.4,86.2h-2.2l-2.5-4.1c-0.3-0.6-0.7-1.5-0.7-1.5h0
		c0,0,0.1,0.9,0.1,1.5v4.1H103v-8.8h2.2l2.4,4.1c0.3,0.6,0.7,1.5,0.7,1.5h0c0,0-0.1-0.9-0.1-1.5v-4.1h2.2V86.2z M119.9,86.2h-2.2
		l-2.5-4.1c-0.3-0.6-0.7-1.5-0.7-1.5h0c0,0,0.1,0.9,0.1,1.5v4.1h-2.2v-8.8h2.2l2.4,4.1c0.3,0.6,0.7,1.5,0.7,1.5h0
		c0,0-0.1-0.9-0.1-1.5v-4.1h2.2V86.2z M127.7,86.2H122v-8.8h5.5v1.8h-3.4v1.6h2.7v1.8h-2.7v1.7h3.5V86.2z M134,86.2l-1.6-3h-1v3
		h-2.2v-8.8h3.1c0.9,0,1.3,0.1,1.7,0.2c1,0.4,1.6,1.3,1.6,2.6c0,0.9-0.4,2-1.3,2.4v0c0,0,0.1,0.2,0.3,0.5l1.7,3.1H134z"/>
	<path fill="#005CB9" d="M132.2,79.3h-0.7v2.1h0.9c0.7,0,1.1-0.4,1.1-1.1C133.5,79.7,133.2,79.3,132.2,79.3z"/>
	<g>
		<path fill="#FFFFFF" d="M76.6,57c-0.5-2.2,2.6-3.3,2.2-5c-0.2-0.7-0.8-1.1-1.6-0.9c-0.9,0.2-1.2,1.2-1.2,1.2l-0.5-0.2
			c0,0,0.3-1.3,1.6-1.6c1.2-0.3,2.1,0.3,2.3,1.3c0.5,2.1-2.6,3.2-2.2,4.8l3.3-0.8l0.1,0.6l-3.9,1C76.7,57.3,76.7,57.2,76.6,57z"/>
		<path fill="#FFFFFF" d="M81.2,53.1c-0.1-1.9,0.3-3.4,2-3.5c1.7-0.1,2.3,1.3,2.5,3.2c0.1,1.9-0.3,3.4-2,3.5
			C82,56.4,81.4,55,81.2,53.1z M85,52.8c-0.1-1.5-0.5-2.7-1.8-2.6c-1.2,0.1-1.5,1.3-1.4,2.8c0.1,1.5,0.5,2.7,1.8,2.6
			C84.9,55.6,85.1,54.4,85,52.8z"/>
		<path fill="#FFFFFF" d="M86.7,55.5l1.4,0.1l0.4-4.7c0-0.2,0-0.4,0-0.4l0,0c0,0-0.1,0.1-0.3,0.4l-0.7,0.6l-0.4-0.4l1.6-1.3l0.6,0
			l-0.5,5.9l1.4,0.1l0,0.6l-3.5-0.3L86.7,55.5z"/>
		<path fill="#FFFFFF" d="M91.1,55.2c0,0,0.5,0.9,1.4,1.1c0.8,0.2,1.6-0.2,1.7-1c0.2-0.9-0.5-1.5-1.3-1.7l-0.4-0.1l-0.1-0.4l2-1.5
			c0.2-0.2,0.4-0.3,0.4-0.3l0,0c0,0-0.2,0-0.5-0.1L92,50.7l0.1-0.6l3.7,0.8l-0.1,0.4l-2.4,1.8c0.8,0.2,1.9,0.9,1.6,2.3
			c-0.2,1.1-1.3,1.8-2.5,1.5c-1.2-0.3-1.8-1.3-1.8-1.3L91.1,55.2z"/>
	</g>
</g>
</svg>
