<?xml version="1.0" encoding="utf-8"?>
<!-- Generator: Adobe Illustrator 18.0.0, SVG Export Plug-In . SVG Version: 6.00 Build 0)  -->
<!DOCTYPE svg PUBLIC "-//W3C//DTD SVG 1.1//EN" "http://www.w3.org/Graphics/SVG/1.1/DTD/svg11.dtd">
<svg version="1.1" id="Layer_1" xmlns="http://www.w3.org/2000/svg" xmlns:xlink="http://www.w3.org/1999/xlink" x="0px" y="0px"
	 viewBox="0 0 172.8 172.8" enable-background="new 0 0 172.8 172.8" xml:space="preserve">
<g>
	<circle fill="#EAEAEC" cx="86.4" cy="86.4" r="66.5"/>
	<g>
		<path fill="#387CC0" d="M116.8,123.5c-20.3,0-40.6,0-60.9,0c-0.1,0-0.1-0.1-0.2-0.1c-2.7-0.8-4-2.5-4-5.2c0-1.8,0-3.6,0-5.4
			c0-3.1-0.1-6.2,1.1-9.1c3.2-8.1,7.7-15.5,12.5-22.7c0.8-1.2,2.2-1.8,3.6-1.9c0.8,0,1.6,0,2.5,0c0-2,0-3.9,0-5.9
			c0-1.4,0.6-2.4,1.7-3.1c1.9-1.1,3.9-1.2,5.8-0.3c1.5,0.7,2.4,1.9,2.3,3.7c-0.1,1.3,0,2.6,0,3.9c0,0.6,0,1.1,0,1.6
			c3.4,0,6.6,0,9.9,0c0-0.1,0-0.2,0-0.3c0-1.8,0-3.7,0-5.5c0-1.4,0.6-2.4,1.7-3.1c1.6-1,3.4-1.1,5.2-0.6c2,0.6,2.9,1.9,2.9,4.1
			c0,0.9,0,1.9,0,2.8c0,0.9,0,1.8,0,2.7c0.8,0,1.5,0,2.3,0c1.7,0,3.2,0.7,4.2,2.1c4.2,5.9,8.1,12,10.9,18.7c1.2,2.8,2.3,5.7,2.4,8.7
			c0.1,3.4,0.1,6.8,0,10.2c0,2.2-1.5,4-3.6,4.6C117.2,123.3,117,123.4,116.8,123.5z M101.2,103.7c-0.1-8.4-6.8-14.9-15.3-14.8
			c-7.9,0.1-14.4,6.9-14.4,15.1c0.1,8.2,6.9,14.7,15.2,14.6C94.6,118.4,101.3,111.6,101.2,103.7z"/>
		<path fill="#387CC0" d="M125.9,74.8c-0.4,1.4-0.9,2.7-2.3,3.4c-0.7,0.4-1.6,0.7-2.4,0.7c-3.4,0.1-6.7,0.1-10.1,0
			c-2.5,0-4.9-2.1-4.7-4.6c0.3-5.8-4.5-11.9-11.1-13.9c-3.7-1.1-7.4-1.2-11.2-1.1c-3.4,0.1-6.6,0.7-9.7,2.4
			c-3.9,2.1-6.6,5.1-7.6,9.4c-0.2,0.9-0.2,1.8-0.3,2.8c-0.1,2.9-2.2,5-5.1,5c-3.1,0-6.2,0-9.3,0c-2.8,0-4.5-1.3-5.2-4
			c0-0.1-0.1-0.1-0.1-0.2c0-2.4,0-4.8,0-7.3c0-0.1,0.1-0.1,0.1-0.2c0.3-2.2,1.3-4,2.9-5.5c2.2-1.9,4.3-3.8,6.7-5.4
			c6-4.2,13-5.9,20.2-6.7c4.9-0.5,9.9-0.6,14.9-0.3c5.2,0.3,10.2,1,15.2,2.5c6.5,2,11.8,5.7,16.5,10.4c1.5,1.5,2.2,3.3,2.6,5.3
			C125.9,70.1,125.9,72.4,125.9,74.8z"/>
		<path fill="#387CC0" d="M96.2,103.8c0,5.4-4.5,9.8-9.9,9.8c-5.4,0-9.8-4.5-9.8-10c0-5.2,4.5-9.7,9.7-9.7
			C91.8,93.8,96.3,98.2,96.2,103.8z"/>
	</g>
</g>
</svg>
