<?xml version="1.0" encoding="utf-8"?>
<!-- Generator: Adobe Illustrator 18.0.0, SVG Export Plug-In . SVG Version: 6.00 Build 0)  -->
<!DOCTYPE svg PUBLIC "-//W3C//DTD SVG 1.1//EN" "http://www.w3.org/Graphics/SVG/1.1/DTD/svg11.dtd">
<svg version="1.1" id="Layer_1" xmlns="http://www.w3.org/2000/svg" xmlns:xlink="http://www.w3.org/1999/xlink" x="0px" y="0px"
	 viewBox="0 0 172.8 172.8" enable-background="new 0 0 172.8 172.8" xml:space="preserve">
<g>
	<circle fill="#EAEAEC" cx="86.4" cy="86.4" r="66.5"/>
	<g>
		<path fill="#387CC0" d="M117.4,57.3l1.7-0.6c0.6-0.2,1.1-0.6,1.5-1.1l4.4-5.9c0.2-0.2,0.1-0.5-0.1-0.7L122,46
			c-0.2-0.2-0.5-0.2-0.7-0.1l-5.9,4.4c-0.5,0.4-0.9,0.9-1.1,1.5l-0.6,1.7c-0.3,0.8-0.7,1.4-1.3,2L88,80c-0.2,0.2-0.4,0.2-0.6,0
			c-1-0.8-4.2-3.7-12.2-11.7c-0.2-0.2-0.3-0.5-0.4-0.7l-0.1-1c0-0.2-0.1-0.3-0.2-0.5c-1.1-1.3-6.9-8.2-5.6-9.2
			c1.5-1.1,9.7-6.3,14.9-8.3c0.1,0,0.1-0.1,0.1-0.2c0-0.4-0.2-1.2-0.7-1.8c0,0-0.1-0.1-0.2-0.1c-1.5,0.1-20,1.4-27.2,9.6
			c0,0-2.6,2.5-2.9,4.5c-0.3,2-2.8,6.2-6.6,6.4c-0.2,0-0.5,0.1-0.7,0.3C45.1,68,43.5,69.5,43,70c-0.1,0.1-0.2,0.3-0.1,0.4
			c0.3,1.2,2,6.1,7.2,6.7c0.1,0,0.3,0,0.4-0.1l2.4-2.4c0.2-0.2,0.3-0.4,0.3-0.6c0.1-0.7,0.3-2.5,1.6-3.7c1.6-1.6,1.8-1.8,1.8-1.8
			s2.3-3.2,10.3,5.1c0.1,0.1,0.3,0.2,0.5,0.3l0.8,0.1c0.3,0,0.5,0.2,0.7,0.3c1.7,1.6,10.4,10.1,12,12.3c0.1,0.2,0.1,0.4,0,0.6
			l-4.2,4.2c-0.2,0.2-0.5,0.2-0.7,0l-2-2c-0.2-0.2-0.6-0.2-0.9,0L71,91.6c-0.1,0.1-0.1,0.2-0.1,0.4c0.1,0.6,0.2,2.3-2.4,3.9
			c-3.2,2-5.5,3.9-9.7,8.1c-4.2,4.2-12.8,12.4-14.2,14.9c0,0-1.1,0.2,2.9,4.3l0.3,0.3c4,4,4.3,2.9,4.3,2.9
			c2.5-1.4,10.8-10,14.9-14.2c4.2-4.2,6-6.5,8.1-9.7c1.7-2.6,3.4-2.5,3.9-2.4c0.1,0,0.3,0,0.4-0.1l2.2-2.2c0.2-0.2,0.2-0.6,0-0.9
			l-2-2c-0.2-0.2-0.2-0.5,0-0.7l35.8-35.8C116,58,116.7,57.5,117.4,57.3z"/>
		<path fill="#387CC0" d="M113.5,104.7C102.9,94,96,88.1,93.7,86.1c-0.5-0.4-1.2-0.4-1.7,0.1l-5.1,5.1c-0.5,0.5-0.5,1.2-0.1,1.7
			c2,2.3,7.9,9.3,18.6,19.9c13.3,13.3,14,14.5,16.1,12.9l4.9-4.9C128,118.7,126.8,117.9,113.5,104.7z"/>
	</g>
</g>
</svg>
