<?xml version="1.0" encoding="utf-8"?>
<!-- Generator: Adobe Illustrator 18.0.0, SVG Export Plug-In . SVG Version: 6.00 Build 0)  -->
<!DOCTYPE svg PUBLIC "-//W3C//DTD SVG 1.1//EN" "http://www.w3.org/Graphics/SVG/1.1/DTD/svg11.dtd">
<svg version="1.1" id="Layer_1" xmlns="http://www.w3.org/2000/svg" xmlns:xlink="http://www.w3.org/1999/xlink" x="0px" y="0px"
	 viewBox="119 144 194 144" enable-background="new 119 144 194 144" xml:space="preserve">
<g>
	<path fill="#F1F1F2" d="M132.8,216v-42.8c0-3.3,1.3-6.3,3.5-8.5s5.2-3.5,8.5-3.5H216h71.2c3.3,0,6.3,1.4,8.5,3.5
		c2.2,2.2,3.5,5.2,3.5,8.5V216H132.8z"/>
	<path fill="#E5E5E5" d="M299.2,216v42.8c0,3.3-1.4,6.3-3.5,8.5c-2.2,2.2-5.2,3.5-8.5,3.5H216h-71.2c-3.3,0-6.3-1.4-8.5-3.5
		c-2.2-2.2-3.5-5.2-3.5-8.5V216H299.2z"/>
	<g>
		<path fill="#005CB9" d="M172.6,194.7h2.5l3.9,9.3c0.4,0.9,0.8,2.3,0.8,2.3h0c0,0,0.5-1.4,0.8-2.3l3.9-9.3h2.5l1.4,17.1h-2.4
			l-0.8-10.8c-0.1-1,0-2.5,0-2.5h0c0,0-0.5,1.6-0.9,2.5l-3.4,7.7h-2.1l-3.4-7.7c-0.4-0.9-0.9-2.6-0.9-2.6h0c0,0,0,1.5,0,2.6
			l-0.8,10.8h-2.4L172.6,194.7z"/>
		<path fill="#005CB9" d="M197,199.3c3.5,0,5.3,2.6,5.3,5.8c0,0.3-0.1,1-0.1,1h-9c0.1,2.7,2,4.1,4.2,4.1c2.1,0,3.6-1.4,3.6-1.4
			l1,1.7c0,0-1.8,1.7-4.8,1.7c-3.9,0-6.5-2.8-6.5-6.4C190.9,201.8,193.6,199.3,197,199.3z M200,204.3c-0.1-2.1-1.4-3.1-3-3.1
			c-1.8,0-3.3,1.1-3.6,3.1H200z"/>
		<path fill="#005CB9" d="M204.7,199.5h2.3v1.6c0,0.5,0,0.9,0,0.9h0c0.6-1.4,2.3-2.8,4.2-2.8c2.1,0,3.3,0.9,3.7,2.8h0
			c0.7-1.5,2.4-2.8,4.4-2.8c2.8,0,4.1,1.6,4.1,4.7v7.9H221v-7.4c0-1.7-0.3-3.1-2.2-3.1c-1.7,0-3,1.5-3.4,3.1
			c-0.1,0.5-0.2,1.1-0.2,1.7v5.6h-2.4v-7.4c0-1.6-0.2-3.1-2.1-3.1c-1.8,0-3.1,1.5-3.5,3.2c-0.1,0.5-0.1,1-0.1,1.6v5.6h-2.4V199.5z"
			/>
		<path fill="#005CB9" d="M226.4,194.7h2.4v5.6c0,0.6,0,1,0,1h0c0,0,1-2.1,3.9-2.1c3.3,0,5.4,2.6,5.4,6.4c0,3.9-2.4,6.4-5.6,6.4
			c-2.7,0-3.9-2.1-3.9-2.1h0c0,0,0,0.4,0,0.9v0.9h-2.2V194.7z M232.2,210.1c1.9,0,3.5-1.6,3.5-4.4c0-2.7-1.4-4.4-3.5-4.4
			c-1.8,0-3.5,1.3-3.5,4.4C228.7,207.9,229.8,210.1,232.2,210.1z"/>
		<path fill="#005CB9" d="M245.8,199.3c3.5,0,5.3,2.6,5.3,5.8c0,0.3-0.1,1-0.1,1h-9c0.1,2.7,2,4.1,4.2,4.1c2.1,0,3.6-1.4,3.6-1.4
			l1,1.7c0,0-1.8,1.7-4.8,1.7c-3.9,0-6.5-2.8-6.5-6.4C239.6,201.8,242.3,199.3,245.8,199.3z M248.7,204.3c-0.1-2.1-1.4-3.1-3-3.1
			c-1.8,0-3.3,1.1-3.6,3.1H248.7z"/>
		<path fill="#005CB9" d="M253.5,199.5h2.3v2.1c0,0.5,0,0.9,0,0.9h0c0.6-1.8,2-3.2,3.9-3.2c0.3,0,0.6,0,0.6,0v2.3
			c0,0-0.3-0.1-0.7-0.1c-1.5,0-2.9,1.1-3.4,2.9c-0.2,0.7-0.3,1.5-0.3,2.2v5h-2.4V199.5z"/>
		<path fill="#005CB9" d="M198.7,218.6c4.1,0,6.2,2.3,6.2,2.3l-1.2,1.8c0,0-2-1.9-4.9-1.9c-3.8,0-6.3,2.9-6.3,6.6
			c0,3.7,2.5,6.8,6.4,6.8c3.2,0,5.3-2.2,5.3-2.2l1.3,1.7c0,0-2.4,2.7-6.6,2.7c-5.1,0-8.8-3.9-8.8-9
			C189.9,222.4,193.7,218.6,198.7,218.6z"/>
		<path fill="#005CB9" d="M214.1,228.4h0.5v-0.2c0-2-1.1-2.7-2.7-2.7c-1.9,0-3.4,1.2-3.4,1.2l-1-1.7c0,0,1.8-1.5,4.6-1.5
			c3.1,0,4.9,1.7,4.9,4.8v7.8h-2.2v-1.2c0-0.6,0-1,0-1h0c0,0-1,2.4-3.9,2.4c-2.1,0-4.2-1.3-4.2-3.7
			C206.7,228.6,212,228.4,214.1,228.4z M211.3,234.5c2,0,3.3-2.1,3.3-3.9v-0.4H214c-1.8,0-5,0.1-5,2.3
			C209,233.5,209.8,234.5,211.3,234.5z"/>
		<path fill="#005CB9" d="M220,223.8h2.3v2.1c0,0.5,0,0.9,0,0.9h0c0.6-1.8,2-3.2,3.9-3.2c0.3,0,0.6,0,0.6,0v2.3c0,0-0.3-0.1-0.7-0.1
			c-1.5,0-2.9,1.1-3.4,2.9c-0.2,0.7-0.3,1.5-0.3,2.2v5H220V223.8z"/>
		<path fill="#005CB9" d="M233.3,223.5c2.8,0,3.8,1.9,3.8,1.9h0c0,0,0-0.4,0-0.8v-5.7h2.4v17.1h-2.2v-1.2c0-0.5,0-0.8,0-0.8h0
			c0,0-1,2.3-4,2.3c-3.3,0-5.4-2.6-5.4-6.4C227.8,226,230.1,223.5,233.3,223.5z M233.7,234.3c1.8,0,3.5-1.3,3.5-4.4
			c0-2.2-1.1-4.4-3.5-4.4c-1.9,0-3.5,1.6-3.5,4.4C230.2,232.6,231.6,234.3,233.7,234.3z"/>
	</g>
	<g>
		<path fill="#282828" d="M242.4,168.8h0.6l0.9,2.1c0.1,0.2,0.2,0.5,0.2,0.5h0c0,0,0.1-0.3,0.2-0.5l0.9-2.1h0.6l0.3,3.9h-0.5
			l-0.2-2.5c0-0.2,0-0.6,0-0.6h0c0,0-0.1,0.4-0.2,0.6l-0.8,1.8h-0.5l-0.8-1.8c-0.1-0.2-0.2-0.6-0.2-0.6h0c0,0,0,0.3,0,0.6l-0.2,2.5
			h-0.5L242.4,168.8z"/>
		<path fill="#282828" d="M248.1,169.8c0.8,0,1.2,0.6,1.2,1.3c0,0.1,0,0.2,0,0.2h-2c0,0.6,0.5,0.9,1,0.9c0.5,0,0.8-0.3,0.8-0.3
			l0.2,0.4c0,0-0.4,0.4-1.1,0.4c-0.9,0-1.5-0.6-1.5-1.5C246.7,170.4,247.3,169.8,248.1,169.8z M248.7,170.9c0-0.5-0.3-0.7-0.7-0.7
			c-0.4,0-0.7,0.3-0.8,0.7H248.7z"/>
		<path fill="#282828" d="M249.9,169.9h0.5v0.4c0,0.1,0,0.2,0,0.2h0c0.1-0.3,0.5-0.6,1-0.6c0.5,0,0.7,0.2,0.8,0.6h0
			c0.2-0.3,0.5-0.6,1-0.6c0.6,0,0.9,0.4,0.9,1.1v1.8h-0.5V171c0-0.4-0.1-0.7-0.5-0.7c-0.4,0-0.7,0.3-0.8,0.7c0,0.1,0,0.2,0,0.4v1.3
			h-0.5V171c0-0.4-0.1-0.7-0.5-0.7c-0.4,0-0.7,0.3-0.8,0.7c0,0.1,0,0.2,0,0.4v1.3h-0.5V169.9z"/>
		<path fill="#282828" d="M255,168.8h0.5v1.3c0,0.1,0,0.2,0,0.2h0c0,0,0.2-0.5,0.9-0.5c0.7,0,1.2,0.6,1.2,1.5c0,0.9-0.5,1.5-1.3,1.5
			c-0.6,0-0.9-0.5-0.9-0.5h0c0,0,0,0.1,0,0.2v0.2H255V168.8z M256.3,172.3c0.4,0,0.8-0.4,0.8-1c0-0.6-0.3-1-0.8-1
			c-0.4,0-0.8,0.3-0.8,1C255.5,171.8,255.7,172.3,256.3,172.3z"/>
		<path fill="#282828" d="M259.5,169.8c0.8,0,1.2,0.6,1.2,1.3c0,0.1,0,0.2,0,0.2h-2c0,0.6,0.5,0.9,1,0.9c0.5,0,0.8-0.3,0.8-0.3
			l0.2,0.4c0,0-0.4,0.4-1.1,0.4c-0.9,0-1.5-0.6-1.5-1.5C258.1,170.4,258.7,169.8,259.5,169.8z M260.1,170.9c0-0.5-0.3-0.7-0.7-0.7
			c-0.4,0-0.7,0.3-0.8,0.7H260.1z"/>
		<path fill="#282828" d="M261.3,169.9h0.5v0.5c0,0.1,0,0.2,0,0.2h0c0.1-0.4,0.5-0.7,0.9-0.7c0.1,0,0.1,0,0.1,0v0.5c0,0-0.1,0-0.2,0
			c-0.3,0-0.7,0.2-0.8,0.7c0,0.2-0.1,0.3-0.1,0.5v1.1h-0.5V169.9z"/>
		<path fill="#282828" d="M263.4,171.9c0,0,0.3,0.3,0.8,0.3c0.2,0,0.5-0.1,0.5-0.3c0-0.5-1.4-0.4-1.4-1.3c0-0.5,0.5-0.8,1-0.8
			c0.6,0,0.9,0.3,0.9,0.3l-0.2,0.4c0,0-0.2-0.2-0.7-0.2c-0.2,0-0.5,0.1-0.5,0.3c0,0.5,1.4,0.4,1.4,1.3c0,0.5-0.4,0.8-1,0.8
			c-0.7,0-1.1-0.4-1.1-0.4L263.4,171.9z"/>
		<path fill="#282828" d="M265.9,168.8h0.5v1.4c0,0.1,0,0.2,0,0.2h0c0.1-0.3,0.5-0.6,1-0.6c0.7,0,1,0.4,1,1.1v1.8h-0.5V171
			c0-0.4-0.1-0.7-0.5-0.7c-0.4,0-0.8,0.3-0.9,0.7c0,0.1,0,0.2,0,0.4v1.3h-0.5V168.8z"/>
		<path fill="#282828" d="M269.2,168.8h0.5v0.5h-0.5V168.8z M269.2,169.9h0.5v2.8h-0.5V169.9z"/>
		<path fill="#282828" d="M270.6,169.9h0.5v0.2c0,0.1,0,0.2,0,0.2h0c0,0,0.2-0.5,0.9-0.5c0.7,0,1.2,0.6,1.2,1.5
			c0,0.9-0.5,1.5-1.3,1.5c-0.6,0-0.9-0.5-0.9-0.5h0c0,0,0,0.1,0,0.2v1.2h-0.5V169.9z M271.9,172.3c0.4,0,0.8-0.4,0.8-1
			c0-0.6-0.3-1-0.8-1c-0.4,0-0.8,0.3-0.8,1C271.1,171.8,271.3,172.3,271.9,172.3z"/>
		<path fill="#282828" d="M277.1,168.7c0.9,0,1.4,0.5,1.4,0.5l-0.3,0.4c0,0-0.5-0.4-1.1-0.4c-0.9,0-1.4,0.7-1.4,1.5
			c0,0.8,0.6,1.5,1.4,1.5c0.7,0,1.2-0.5,1.2-0.5l0.3,0.4c0,0-0.5,0.6-1.5,0.6c-1.2,0-2-0.9-2-2C275.1,169.6,276,168.7,277.1,168.7z"
			/>
		<path fill="#282828" d="M280.7,170.9h0.1v0c0-0.5-0.3-0.6-0.6-0.6c-0.4,0-0.8,0.3-0.8,0.3l-0.2-0.4c0,0,0.4-0.3,1-0.3
			c0.7,0,1.1,0.4,1.1,1.1v1.8h-0.5v-0.3c0-0.1,0-0.2,0-0.2h0c0,0-0.2,0.6-0.9,0.6c-0.5,0-0.9-0.3-0.9-0.8
			C279,171,280.2,170.9,280.7,170.9z M280.1,172.3c0.5,0,0.7-0.5,0.7-0.9v-0.1h-0.1c-0.4,0-1.1,0-1.1,0.5
			C279.6,172.1,279.7,172.3,280.1,172.3z"/>
		<path fill="#282828" d="M282.2,169.9h0.5v0.5c0,0.1,0,0.2,0,0.2h0c0.1-0.4,0.5-0.7,0.9-0.7c0.1,0,0.1,0,0.1,0v0.5c0,0-0.1,0-0.2,0
			c-0.3,0-0.7,0.2-0.8,0.7c0,0.2-0.1,0.3-0.1,0.5v1.1h-0.5V169.9z"/>
		<path fill="#282828" d="M285.3,169.8c0.6,0,0.9,0.4,0.9,0.4h0c0,0,0-0.1,0-0.2v-1.3h0.5v3.9h-0.5v-0.3c0-0.1,0-0.2,0-0.2h0
			c0,0-0.2,0.5-0.9,0.5c-0.8,0-1.2-0.6-1.2-1.5C284.1,170.4,284.6,169.8,285.3,169.8z M285.4,172.3c0.4,0,0.8-0.3,0.8-1
			c0-0.5-0.3-1-0.8-1c-0.4,0-0.8,0.4-0.8,1C284.6,171.9,284.9,172.3,285.4,172.3z"/>
	</g>
</g>
</svg>
