<?xml version="1.0" encoding="UTF-8" standalone="no"?>
<svg width="430px" height="112px" viewBox="0 0 430 112" version="1.1" xmlns="http://www.w3.org/2000/svg" xmlns:xlink="http://www.w3.org/1999/xlink" xmlns:sketch="http://www.bohemiancoding.com/sketch/ns">
    <!-- Generator: Sketch 3.1.1 (8761) - http://www.bohemiancoding.com/sketch -->
    <title>pti-logo-color</title>
    <desc>Created with Sketch.</desc>
    <defs></defs>
    <g id="Page-1" stroke="none" stroke-width="1" fill="none" fill-rule="evenodd" sketch:type="MSPage">
        <g id="PTI_Homepage_Logo_White" sketch:type="MSLayerGroup">
            <g id="Group" sketch:type="MSShapeGroup">
                <g transform="translate(99.604520, 46.260870)" id="Shape">
                    <path d="M0.728813559,-0.243478261 L17.7344633,-0.243478261 C24.5367232,-0.243478261 30.8531073,2.92173913 30.8531073,11.4434783 C30.8531073,20.4521739 25.7514124,23.8608696 17.7344633,23.8608696 L9.96045198,23.8608696 L9.96045198,35.7913043 L0.485875706,35.7913043 L0.485875706,-0.243478261 L0.728813559,-0.243478261 Z M10.2033898,16.5565217 L16.519774,16.5565217 C19.4350282,16.5565217 21.6214689,15.3391304 21.6214689,12.173913 C21.6214689,8.76521739 19.4350282,7.30434783 16.519774,7.30434783 L10.2033898,7.30434783 L10.2033898,16.5565217 L10.2033898,16.5565217 Z" fill="#005CBA"></path>
                    <path d="M40.3276836,24.8347826 C40.5706215,28.4869565 42.5141243,30.9217391 46.1581921,30.9217391 C48.3446328,30.9217391 50.2881356,29.9478261 51.0169492,28 L59.0338983,28 C57.3333333,34.0869565 51.9887006,36.7652174 45.9152542,36.7652174 C37.4124294,36.7652174 31.5819209,31.6521739 31.5819209,22.8869565 C31.5819209,14.8521739 37.8983051,9.00869565 45.6723164,9.00869565 C55.1468927,9.00869565 59.7627119,16.0695652 59.2768362,25.0782609 L40.3276836,25.0782609 L40.3276836,24.8347826 Z M51.0169492,20.2086957 C50.7740113,17.2869565 48.8305085,14.8521739 45.9152542,14.8521739 C43,14.8521739 40.8135593,17.0434783 40.3276836,20.2086957 L51.0169492,20.2086957 L51.0169492,20.2086957 Z" fill="#005CBA"></path>
                    <path d="M75.3107345,9.00869565 C83.3276836,9.00869565 89.1581921,15.0956522 89.1581921,22.8869565 C89.1581921,30.6782609 83.5706215,36.7652174 75.3107345,36.7652174 C67.2937853,36.7652174 61.4632768,30.6782609 61.4632768,22.8869565 C61.4632768,14.8521739 67.0508475,9.00869565 75.3107345,9.00869565 L75.3107345,9.00869565 Z M75.3107345,30.1913043 C79.440678,30.1913043 80.6553672,26.2956522 80.6553672,22.8869565 C80.6553672,19.4782609 79.440678,15.5826087 75.3107345,15.5826087 C71.4237288,15.5826087 70.2090395,19.4782609 70.2090395,22.8869565 C69.9661017,26.2956522 71.180791,30.1913043 75.3107345,30.1913043 L75.3107345,30.1913043 Z" fill="#005CBA"></path>
                    <path d="M91.5875706,9.73913043 L99.8474576,9.73913043 L99.8474576,12.6608696 C101.548023,10.226087 103.977401,8.76521739 107.135593,8.76521739 C115.39548,8.76521739 118.79661,15.826087 118.79661,23.1304348 C118.79661,29.9478261 115.152542,36.5217391 107.864407,36.5217391 C104.706215,36.5217391 102.276836,35.3043478 100.333333,32.8695652 L100.333333,32.8695652 L100.333333,44.5565217 L91.8305085,44.5565217 L91.8305085,9.73913043 L91.5875706,9.73913043 Z M99.8474576,22.6434783 C99.8474576,27.2695652 101.062147,30.1913043 104.949153,30.1913043 C108.836158,30.1913043 110.050847,26.2956522 110.050847,22.6434783 C110.050847,19.2347826 108.836158,15.5826087 104.949153,15.5826087 C102.762712,15.5826087 99.8474576,17.0434783 99.8474576,22.6434783 L99.8474576,22.6434783 Z" fill="#005CBA"></path>
                    <path d="M121.711864,-0.243478261 L130.214689,-0.243478261 L130.214689,35.7913043 L121.711864,35.7913043 L121.711864,-0.243478261 L121.711864,-0.243478261 Z" fill="#005CBA"></path>
                    <path d="M141.632768,24.8347826 C141.875706,28.4869565 143.819209,30.9217391 147.463277,30.9217391 C149.649718,30.9217391 151.59322,29.9478261 152.322034,28 L160.338983,28 C158.638418,34.0869565 153.293785,36.7652174 147.220339,36.7652174 C138.717514,36.7652174 132.887006,31.6521739 132.887006,22.8869565 C132.887006,14.8521739 139.20339,9.00869565 146.977401,9.00869565 C156.451977,9.00869565 161.067797,16.0695652 160.581921,25.0782609 L141.632768,25.0782609 L141.632768,24.8347826 Z M152.322034,20.2086957 C152.079096,17.2869565 150.135593,14.8521739 147.220339,14.8521739 C144.305085,14.8521739 142.118644,17.0434783 141.632768,20.2086957 L152.322034,20.2086957 L152.322034,20.2086957 Z" fill="#005CBA"></path>
                    <path d="M162.525424,-0.243478261 L170.542373,-0.243478261 L170.542373,8.03478261 C170.542373,13.1478261 168.112994,16.8 162.525424,17.773913 L162.525424,13.6347826 C164.711864,13.1478261 166.412429,11.2 166.169492,8.76521739 L162.525424,8.76521739 L162.525424,-0.243478261 L162.525424,-0.243478261 Z" fill="#005CBA"></path>
                    <path d="M178.80226,27.2695652 C178.80226,28.7304348 179.288136,29.4608696 180.259887,30.1913043 C180.988701,30.6782609 182.20339,31.1652174 183.418079,31.1652174 C185.118644,31.1652174 187.548023,30.4347826 187.548023,28.4869565 C187.548023,26.2956522 184.875706,26.0521739 183.418079,25.8086957 C178.073446,24.3478261 171.271186,24.3478261 171.271186,17.2869565 C171.271186,10.9565217 178.073446,9.25217391 183.175141,9.25217391 C188.762712,9.25217391 195.079096,10.9565217 195.322034,17.773913 L187.305085,17.773913 C187.305085,16.8 187.062147,16.0695652 186.090395,15.5826087 C185.361582,15.0956522 184.632768,14.8521739 183.418079,14.8521739 C181.960452,14.8521739 179.774011,15.0956522 179.774011,16.8 C179.774011,19.2347826 185.60452,19.7217391 189.491525,20.6956522 C194.836158,21.6695652 196.050847,25.5652174 196.050847,27.7565217 C196.050847,34.8173913 189.491525,37.0086957 183.418079,37.0086957 C177.101695,37.0086957 170.785311,34.8173913 170.542373,27.5130435 L178.80226,27.5130435 L178.80226,27.2695652 Z" fill="#005CBA"></path>
                    <path d="M228.118644,8.03478261 L217.429379,8.03478261 L217.429379,36.0347826 L207.954802,36.0347826 L207.954802,8.03478261 L197.265537,8.03478261 L197.265537,-7.10542736e-15 L228.118644,-7.10542736e-15 L228.118644,8.03478261 L228.118644,8.03478261 Z" fill="#626569"></path>
                    <path d="M226.661017,9.73913043 L234.920904,9.73913043 L234.920904,14.3652174 C236.135593,10.9565217 239.050847,9.25217391 242.694915,9.25217391 C243.423729,9.25217391 244.152542,9.25217391 244.638418,9.49565217 L244.638418,17.2869565 C243.423729,17.0434783 242.451977,16.8 241.480226,16.8 C237.350282,16.8 234.920904,19.7217391 234.920904,23.1304348 L234.920904,36.0347826 L226.418079,36.0347826 L226.418079,9.73913043 L226.661017,9.73913043 Z" fill="#626569"></path>
                    <path d="M273.79096,36.0347826 L265.531073,36.0347826 L265.531073,32.3826087 C263.830508,35.0608696 260.672316,36.7652174 257.514124,36.7652174 C249.983051,36.7652174 247.79661,32.3826087 247.79661,25.5652174 L247.79661,9.73913043 L256.299435,9.73913043 L256.299435,25.0782609 C256.299435,28.4869565 257.757062,29.7043478 260.429379,29.7043478 C262.129944,29.7043478 265.045198,28.4869565 265.045198,23.8608696 L265.045198,9.73913043 L273.548023,9.73913043 L273.548023,36.0347826 L273.79096,36.0347826 Z" fill="#626569"></path>
                    <path d="M283.99435,27.2695652 C283.99435,28.7304348 284.480226,29.4608696 285.451977,30.1913043 C286.180791,30.6782609 287.39548,31.1652174 288.610169,31.1652174 C290.310734,31.1652174 292.740113,30.4347826 292.740113,28.4869565 C292.740113,26.2956522 290.067797,26.0521739 288.610169,25.8086957 C283.265537,24.3478261 276.463277,24.3478261 276.463277,17.2869565 C276.463277,10.9565217 283.265537,9.25217391 288.367232,9.25217391 C293.954802,9.25217391 300.271186,10.9565217 300.514124,17.773913 L292.497175,17.773913 C292.497175,16.8 292.254237,16.0695652 291.282486,15.5826087 C290.553672,15.0956522 289.824859,14.8521739 288.610169,14.8521739 C287.152542,14.8521739 284.966102,15.0956522 284.966102,16.8 C284.966102,19.2347826 290.79661,19.7217391 294.683616,20.6956522 C300.028249,21.6695652 301.242938,25.5652174 301.242938,27.7565217 C301.242938,34.8173913 294.683616,37.0086957 288.610169,37.0086957 C282.293785,37.0086957 275.977401,34.8173913 275.734463,27.5130435 L283.99435,27.5130435 L283.99435,27.2695652 Z" fill="#626569"></path>
                    <path d="M320.19209,15.3391304 L314.847458,15.3391304 L314.847458,27.2695652 C314.847458,29.4608696 316.062147,29.7043478 318.00565,29.7043478 L320.19209,29.7043478 L320.19209,36.0347826 C318.734463,36.0347826 317.033898,36.2782609 315.576271,36.2782609 C308.288136,36.2782609 306.344633,34.0869565 306.344633,27.026087 L306.344633,15.3391304 L301.971751,15.3391304 L301.971751,9.73913043 L306.344633,9.73913043 L306.344633,1.70434783 L314.847458,1.70434783 L314.847458,9.73913043 L320.19209,9.73913043 L320.19209,15.3391304 L320.19209,15.3391304 Z" fill="#626569"></path>
                </g>
                <path d="M57.3333333,93.2521739 C58.0621469,96.173913 58.3050847,101.286957 58.3050847,104.208696 C57.3333333,102.747826 56.1186441,100.313043 55.6327684,98.6086957 L55.3898305,97.8782609 L55.3898305,97.6347826 L55.6327684,97.1478261 L56.3615819,95.2 C56.6045198,94.226087 56.8474576,93.4956522 57.3333333,93.2521739 L57.3333333,93.2521739 L57.3333333,93.2521739 Z" id="Shape" fill="#FFFFFF"></path>
                <path d="M45.6723164,108.104348 L47.8587571,76.2086957 C48.1016949,74.9913043 48.8305085,68.9043478 51.0169492,66.7130435 C52.4745763,65.4956522 54.6610169,64.7652174 56.1186441,64.2782609 C54.6610169,59.1652174 53.2033898,54.7826087 52.4745763,54.0521739 C50.2881356,51.8608696 42.2711864,50.8869565 42.2711864,50.8869565 L42.2711864,49.426087 C42.2711864,49.426087 43.2429379,48.6956522 43.9717514,46.0173913 C44.9435028,43.3391304 44.9435028,39.2 43.9717514,36.0347826 C43.2429379,33.6 40.3276836,31.8956522 37.4124294,31.8956522 C34.740113,31.8956522 31.8248588,33.3565217 31.5819209,37.2521739 C31.0960452,41.1478261 31.5819209,43.5826087 32.0677966,45.0434783 C32.3107345,45.773913 32.7966102,46.5043478 33.039548,46.9913043 L34.0112994,48.4521739 C35.2259887,50.1565217 34.0112994,50.6434783 34.0112994,50.6434783 C34.0112994,50.6434783 25.2655367,51.8608696 23.5649718,54.0521739 C20.8926554,56.2434783 20.8926554,62.8173913 20.8926554,62.8173913 C20.8926554,62.8173913 18.220339,85.9478261 18.4632768,88.626087 C18.7062147,92.0347826 22.3502825,98.6086957 22.3502825,98.6086957 L22.3502825,108.104348 L45.6723164,108.104348 C45.6723164,108.347826 45.6723164,108.104348 45.6723164,108.104348 L45.6723164,108.104348 Z" id="Shape" fill="#005CBA"></path>
                <path d="M85.7570621,108.347826 L85.7570621,108.347826 L90.3728814,95.4434783 C90.8587571,94.226087 90.8587571,93.0086957 90.6158192,91.7913043 C89.1581921,85.9478261 84.5423729,67.6869565 83.5706215,66.7130435 C82.1129944,65.7391304 77.740113,64.7652174 77.740113,64.7652174 L76.039548,61.3565217 C75.5536723,60.3826087 75.0677966,59.4086957 75.0677966,59.1652174 C74.8248588,58.1913043 74.8248588,57.2173913 74.5819209,56.2434783 C74.8248588,53.5652174 74.8248588,50.6434783 74.0960452,48.4521739 L73.8531073,47.9652174 L73.8531073,47.7217391 C71.9096045,44.0695652 65.8361582,42.8521739 62.920904,46.5043478 L62.920904,46.5043478 C61.220339,48.6956522 60.7344633,51.6173913 60.7344633,54.2956522 L60.7344633,56 L60.7344633,57.9478261 C60.7344633,59.1652174 60.7344633,60.626087 60.4915254,61.3565217 L59.7627119,63.0608696 C59.519774,63.7913043 59.0338983,64.7652174 58.3050847,65.7391304 C58.3050847,65.7391304 53.9322034,66.4695652 51.9887006,68.4173913 C50.0451977,70.1217391 49.3163842,76.6956522 49.3163842,76.6956522 L47.1299435,108.591304 L85.7570621,108.591304 L85.7570621,108.347826 Z M82.3559322,93.9826087 C81.8700565,95.6869565 80.6553672,98.3652174 79.440678,99.826087 C79.1977401,96.6608696 79.6836158,91.3043478 80.4124294,88.1391304 L80.6553672,87.8956522 C80.8983051,88.3826087 81.3841808,89.1130435 81.6271186,90.0869565 L82.5988701,92.2782609 C82.5988701,92.2782609 82.8418079,92.7652174 82.5988701,93.2521739 C82.5988701,93.4956522 82.3559322,93.9826087 82.3559322,93.9826087 L82.3559322,93.9826087 Z" id="Shape" fill="#626569"></path>
                <g transform="translate(99.604520, 92.521739)" id="Shape" fill="#626569">
                    <path d="M0.485875706,0.730434783 L4.37288136,0.730434783 L4.37288136,15.826087 L0.485875706,15.826087 L0.485875706,0.730434783 L0.485875706,0.730434783 Z"></path>
                    <path d="M6.80225989,4.86956522 L10.2033898,4.86956522 L10.2033898,6.33043478 C10.9322034,5.11304348 12.3898305,4.62608696 13.6045198,4.62608696 C17.2485876,4.62608696 17.4915254,7.30434783 17.4915254,8.76521739 L17.4915254,15.826087 L13.8474576,15.826087 L13.8474576,10.4695652 L13.8474576,9.49565217 C13.8474576,8.52173913 13.6045198,7.54782609 12.1468927,7.54782609 C10.6892655,7.54782609 10.2033898,8.76521739 10.2033898,9.9826087 L10.2033898,15.826087 L6.55932203,15.826087 L6.55932203,4.86956522 L6.80225989,4.86956522 Z"></path>
                    <path d="M22.8361582,12.173913 C22.8361582,12.6608696 23.079096,13.1478261 23.3220339,13.3913043 C23.5649718,13.6347826 24.0508475,13.8782609 24.5367232,13.8782609 C25.2655367,13.8782609 26.2372881,13.6347826 26.2372881,12.6608696 C26.2372881,11.6869565 25.0225989,11.6869565 24.5367232,11.4434783 C22.3502825,10.9565217 19.4350282,10.7130435 19.4350282,7.79130435 C19.4350282,5.11304348 22.3502825,4.3826087 24.2937853,4.3826087 C26.7231638,4.3826087 29.1525424,5.11304348 29.3954802,8.03478261 L25.9943503,8.03478261 C25.9943503,7.54782609 25.7514124,7.30434783 25.5084746,7.06086957 C25.2655367,6.8173913 24.779661,6.8173913 24.2937853,6.8173913 C23.8079096,6.8173913 22.8361582,6.8173913 22.8361582,7.54782609 C22.8361582,8.52173913 25.2655367,8.76521739 26.9661017,9.00869565 C29.1525424,9.49565217 29.6384181,10.9565217 29.6384181,11.9304348 C29.6384181,14.8521739 26.9661017,15.826087 24.2937853,15.826087 C21.6214689,15.826087 18.9491525,14.8521739 18.9491525,11.9304348 L22.8361582,11.9304348 L22.8361582,12.173913 Z"></path>
                    <path d="M42.5141243,15.826087 L39.1129944,15.826087 L39.1129944,14.3652174 C38.3841808,15.5826087 37.1694915,16.0695652 35.7118644,16.0695652 C32.5536723,16.0695652 31.5819209,14.3652174 31.5819209,11.4434783 L31.5819209,4.86956522 L35.2259887,4.86956522 L35.2259887,11.2 C35.2259887,12.6608696 35.9548023,13.1478261 36.9265537,13.1478261 C37.6553672,13.1478261 38.8700565,12.6608696 38.8700565,10.7130435 L38.8700565,4.86956522 L42.5141243,4.86956522 L42.5141243,15.826087 L42.5141243,15.826087 Z"></path>
                    <path d="M45.1864407,4.86956522 L48.5875706,4.86956522 L48.5875706,6.8173913 C49.0734463,5.35652174 50.2881356,4.62608696 51.7457627,4.62608696 L52.4745763,4.62608696 L52.4745763,7.79130435 C51.9887006,7.54782609 51.5028249,7.54782609 51.0169492,7.54782609 C49.3163842,7.54782609 48.3446328,8.76521739 48.3446328,10.226087 L48.3446328,15.5826087 L44.700565,15.5826087 L44.700565,4.86956522 L45.1864407,4.86956522 Z"></path>
                    <path d="M53.6892655,8.27826087 C53.6892655,6.8173913 54.4180791,5.84347826 55.3898305,5.35652174 C56.3615819,4.86956522 57.5762712,4.62608696 58.7909605,4.62608696 C61.4632768,4.62608696 63.8926554,5.11304348 63.8926554,8.27826087 L63.8926554,13.1478261 C63.8926554,14.1217391 63.8926554,15.0956522 64.3785311,15.826087 L60.7344633,15.826087 L60.7344633,14.8521739 C59.7627119,15.826087 58.5480226,16.3130435 57.0903955,16.3130435 C54.9039548,16.3130435 53.4463277,15.3391304 53.4463277,12.9043478 C53.4463277,9.25217391 57.3333333,9.73913043 59.7627119,9.00869565 C60.4915254,8.76521739 60.7344633,8.76521739 60.7344633,8.03478261 C60.7344633,7.30434783 59.7627119,6.8173913 59.0338983,6.8173913 C58.0621469,6.8173913 57.3333333,7.30434783 57.3333333,8.27826087 L53.6892655,8.27826087 L53.6892655,8.27826087 Z M58.3050847,13.8782609 C60.0056497,13.8782609 60.4915254,12.9043478 60.4915254,10.7130435 C60.0056497,10.9565217 59.0338983,10.9565217 58.3050847,11.2 C57.5762712,11.4434783 56.8474576,11.6869565 56.8474576,12.6608696 C56.8474576,13.6347826 57.5762712,13.8782609 58.3050847,13.8782609 L58.3050847,13.8782609 Z"></path>
                    <path d="M66.3220339,4.86956522 L69.7231638,4.86956522 L69.7231638,6.33043478 C70.4519774,5.11304348 71.9096045,4.62608696 73.1242938,4.62608696 C76.7683616,4.62608696 77.0112994,7.30434783 77.0112994,8.76521739 L77.0112994,15.826087 L73.3672316,15.826087 L73.3672316,10.4695652 L73.3672316,9.49565217 C73.3672316,8.52173913 73.1242938,7.54782609 71.6666667,7.54782609 C70.2090395,7.54782609 69.7231638,8.76521739 69.7231638,9.9826087 L69.7231638,15.826087 L66.079096,15.826087 L66.079096,4.86956522 L66.3220339,4.86956522 Z"></path>
                    <path d="M86.7288136,8.76521739 C86.7288136,7.79130435 86,7.30434783 85.0282486,7.30434783 C83.0847458,7.30434783 82.5988701,9.00869565 82.5988701,10.4695652 C82.5988701,11.9304348 83.3276836,13.3913043 84.7853107,13.3913043 C86,13.3913043 86.7288136,12.6608696 86.7288136,11.4434783 L90.1299435,11.4434783 C89.8870056,14.3652174 87.4576271,16.0695652 84.5423729,16.0695652 C81.3841808,16.0695652 78.9548023,13.8782609 78.9548023,10.4695652 C78.9548023,7.06086957 81.1412429,4.62608696 84.5423729,4.62608696 C87.2146893,4.62608696 89.6440678,6.08695652 89.8870056,9.00869565 L86.7288136,9.00869565 L86.7288136,8.76521739 Z"></path>
                    <path d="M94.9887006,11.2 C94.9887006,12.6608696 95.960452,13.6347826 97.4180791,13.6347826 C98.3898305,13.6347826 99.1186441,13.1478261 99.3615819,12.4173913 L102.762712,12.4173913 C102.033898,14.8521739 99.8474576,16.0695652 97.4180791,16.0695652 C93.7740113,16.0695652 91.3446328,13.8782609 91.3446328,10.226087 C91.3446328,6.8173913 94.0169492,4.3826087 97.1751412,4.3826087 C101.062147,4.3826087 103.00565,7.30434783 102.762712,10.9565217 L94.9887006,10.9565217 L94.9887006,11.2 Z M99.6045198,9.25217391 C99.6045198,8.03478261 98.6327684,7.06086957 97.4180791,7.06086957 C96.2033898,7.06086957 95.2316384,8.03478261 94.9887006,9.25217391 L99.6045198,9.25217391 L99.6045198,9.25217391 Z"></path>
                    <path d="M121.468927,6.08695652 C121.225989,4.62608696 120.011299,3.65217391 118.553672,3.65217391 C116.124294,3.65217391 115.152542,5.84347826 115.152542,8.03478261 C115.152542,10.226087 116.124294,12.4173913 118.553672,12.4173913 C120.497175,12.4173913 121.468927,11.4434783 121.468927,9.73913043 L125.355932,9.73913043 C125.112994,13.6347826 122.19774,15.826087 118.553672,15.826087 C113.937853,15.826087 111.022599,12.4173913 111.022599,8.03478261 C111.022599,3.65217391 113.937853,0.243478261 118.553672,0.243478261 C121.711864,0.243478261 125.355932,2.19130435 125.355932,5.84347826 L121.468927,5.84347826 L121.468927,6.08695652 Z"></path>
                    <path d="M132.644068,4.62608696 C136.045198,4.62608696 138.474576,7.06086957 138.474576,10.4695652 C138.474576,13.8782609 136.045198,16.3130435 132.644068,16.3130435 C129.242938,16.3130435 126.813559,13.8782609 126.813559,10.4695652 C126.813559,7.06086957 129.242938,4.62608696 132.644068,4.62608696 L132.644068,4.62608696 Z M132.644068,13.3913043 C134.344633,13.3913043 134.830508,11.6869565 134.830508,10.4695652 C134.830508,9.00869565 134.344633,7.30434783 132.644068,7.30434783 C130.943503,7.30434783 130.457627,9.00869565 130.457627,10.4695652 C130.457627,11.6869565 130.943503,13.3913043 132.644068,13.3913043 L132.644068,13.3913043 Z"></path>
                    <path d="M140.175141,4.86956522 L143.576271,4.86956522 L143.576271,6.33043478 C144.305085,5.35652174 145.276836,4.62608696 146.734463,4.62608696 C148.19209,4.62608696 149.40678,5.11304348 149.892655,6.33043478 C150.864407,5.11304348 151.836158,4.62608696 153.293785,4.62608696 C156.694915,4.62608696 157.180791,7.30434783 157.180791,9.25217391 L157.180791,15.826087 L153.536723,15.826087 L153.536723,9.49565217 C153.536723,8.27826087 153.050847,7.54782609 152.079096,7.54782609 C150.621469,7.54782609 150.378531,8.76521739 150.378531,10.4695652 L150.378531,15.826087 L146.734463,15.826087 L146.734463,9.73913043 C146.734463,8.52173913 146.491525,7.54782609 145.276836,7.54782609 C144.062147,7.54782609 143.333333,8.27826087 143.333333,10.4695652 L143.333333,15.826087 L139.689266,15.826087 L139.689266,4.86956522 L140.175141,4.86956522 Z"></path>
                    <path d="M159.610169,4.86956522 L163.011299,4.86956522 L163.011299,6.08695652 C163.740113,5.11304348 164.711864,4.62608696 165.926554,4.62608696 C169.327684,4.62608696 170.785311,7.54782609 170.785311,10.7130435 C170.785311,13.6347826 169.327684,16.3130435 166.169492,16.3130435 C164.954802,16.3130435 163.740113,15.826087 163.011299,14.8521739 L163.011299,14.8521739 L163.011299,19.7217391 L159.367232,19.7217391 L159.367232,4.86956522 L159.610169,4.86956522 Z M163.011299,10.226087 C163.011299,12.173913 163.497175,13.3913043 165.19774,13.3913043 C166.655367,13.3913043 167.384181,11.6869565 167.384181,10.226087 C167.384181,8.76521739 166.898305,7.30434783 165.19774,7.30434783 C164.225989,7.30434783 163.011299,8.03478261 163.011299,10.226087 L163.011299,10.226087 Z"></path>
                    <path d="M172.728814,8.27826087 C172.728814,6.8173913 173.457627,5.84347826 174.429379,5.35652174 C175.40113,4.86956522 176.615819,4.62608696 177.830508,4.62608696 C180.502825,4.62608696 182.932203,5.11304348 182.932203,8.27826087 L182.932203,13.1478261 C182.932203,14.1217391 182.932203,15.0956522 183.418079,15.826087 L179.774011,15.826087 C179.531073,15.5826087 179.531073,15.0956522 179.531073,14.8521739 C178.559322,15.826087 177.344633,16.3130435 175.887006,16.3130435 C173.700565,16.3130435 172.242938,15.3391304 172.242938,12.9043478 C172.242938,9.25217391 176.129944,9.73913043 178.559322,9.00869565 C179.288136,8.76521739 179.531073,8.76521739 179.531073,8.03478261 C179.531073,7.30434783 178.559322,6.8173913 177.830508,6.8173913 C176.858757,6.8173913 176.129944,7.30434783 176.129944,8.27826087 L172.728814,8.27826087 L172.728814,8.27826087 Z M177.344633,13.8782609 C179.045198,13.8782609 179.531073,12.9043478 179.531073,10.7130435 C179.045198,10.9565217 178.073446,10.9565217 177.344633,11.2 C176.615819,11.4434783 175.887006,11.6869565 175.887006,12.6608696 C175.887006,13.6347826 176.372881,13.8782609 177.344633,13.8782609 L177.344633,13.8782609 Z"></path>
                    <path d="M185.361582,4.86956522 L188.762712,4.86956522 L188.762712,6.33043478 C189.491525,5.11304348 190.949153,4.62608696 192.163842,4.62608696 C195.80791,4.62608696 196.050847,7.30434783 196.050847,8.76521739 L196.050847,15.826087 L192.40678,15.826087 L192.40678,10.4695652 L192.40678,9.49565217 C192.40678,8.52173913 192.163842,7.54782609 190.706215,7.54782609 C189.248588,7.54782609 188.762712,8.76521739 188.762712,9.9826087 L188.762712,15.826087 L185.118644,15.826087 L185.118644,4.86956522 L185.361582,4.86956522 Z"></path>
                    <path d="M204.310734,16.8 C203.581921,19.2347826 202.124294,19.4782609 199.694915,19.4782609 L197.99435,19.4782609 L197.99435,16.5565217 L199.20904,16.5565217 C199.937853,16.5565217 200.666667,16.0695652 200.666667,15.3391304 C200.666667,14.8521739 199.937853,13.1478261 199.694915,12.4173913 L196.779661,4.86956522 L200.666667,4.86956522 L202.610169,11.9304348 L204.553672,4.86956522 L208.19774,4.86956522 L204.310734,16.8 L204.310734,16.8 Z"></path>
                </g>
                <path d="M426.355932,75.4782609 C428.299435,75.4782609 430,76.9391304 430,79.1304348 C430,81.0782609 428.299435,82.7826087 426.355932,82.7826087 C424.412429,82.7826087 422.711864,81.3217391 422.711864,79.1304348 C422.711864,77.1826087 424.169492,75.4782609 426.355932,75.4782609 L426.355932,75.4782609 Z M426.355932,82.0521739 C428.056497,82.0521739 429.271186,80.8347826 429.271186,78.8869565 C429.271186,77.1826087 428.056497,75.9652174 426.355932,75.9652174 C424.655367,75.9652174 423.440678,77.1826087 423.440678,78.8869565 C423.19774,80.8347826 424.655367,82.0521739 426.355932,82.0521739 L426.355932,82.0521739 Z M424.898305,76.9391304 L426.59887,76.9391304 C427.570621,76.9391304 428.056497,77.426087 428.056497,78.1565217 C428.056497,78.8869565 427.570621,79.1304348 426.841808,79.373913 L428.056497,81.3217391 L427.327684,81.3217391 L426.112994,79.6173913 L425.384181,79.6173913 L425.384181,81.3217391 L424.655367,81.3217391 L424.655367,76.9391304 L424.898305,76.9391304 Z M425.384181,78.8869565 L426.112994,78.8869565 C426.59887,78.8869565 427.327684,78.8869565 427.327684,78.1565217 C427.327684,77.6695652 426.841808,77.426087 426.355932,77.426087 L425.384181,77.426087 L425.384181,78.8869565 L425.384181,78.8869565 Z" id="Shape" fill="#626569"></path>
                <g>
                    <path d="M20.4067797,35.7913043 L54.9039548,13.1478261 L89.1581921,35.7913043 L92.559322,35.7913043 L54.9039548,10.7130435 L17.0056497,35.7913043 L20.4067797,35.7913043 Z" id="Shape" fill="#626569"></path>
                    <path d="M54.9039548,7.54782609 L97.6610169,35.7913043 L108.59322,35.7913043 L54.9039548,0.243478261 L0.971751412,35.7913043 L11.9039548,35.7913043 L54.9039548,7.54782609 Z" id="Shape" fill="#005CBA"></path>
                    <rect id="Rectangle-path" fill="#005CBA" x="9.71751412" y="17.0434783" width="8.50282486" height="12.6608696"></rect>
                </g>
            </g>
        </g>
    </g>
</svg>