<?xml version="1.0" encoding="UTF-8" standalone="no"?>
<svg width="180px" height="47px" viewBox="0 0 180 47" version="1.1" xmlns="http://www.w3.org/2000/svg" xmlns:xlink="http://www.w3.org/1999/xlink" xmlns:sketch="http://www.bohemiancoding.com/sketch/ns">
    <!-- Generator: Sketch 3.1.1 (8761) - http://www.bohemiancoding.com/sketch -->
    <defs>
        <path id="path-1" d="M0.00602678571,-0.0101648822 L179.947768,-0.0101648822 L179.947768,46.8933191 L0.00602678571,46.8933191"></path>
        <path id="path-3" d="M0.00602678571,-0.0101648822 L179.947768,-0.0101648822 L179.947768,46.8933191 L0.00602678571,46.8933191"></path>
        <path id="path-5" d="M0.00602678571,-0.0101648822 L179.947768,-0.0101648822 L179.947768,46.8933191 L0.00602678571,46.8933191"></path>
    </defs>
    <g id="Page-1" stroke="none" stroke-width="1" fill="none" fill-rule="evenodd" sketch:type="MSPage">
        <g id="PTI-Logo-2014-White" sketch:type="MSLayerGroup">
            <path d="M45.6461719,26.318591 L48.2921317,26.318591 C49.541183,26.318591 50.4091406,25.8095418 50.4091406,24.4309422 C50.4091406,22.9885353 49.4986942,22.4371156 48.2921317,22.4371156 L45.6461719,22.4371156 L45.6461719,26.318591 L45.6461719,26.318591 Z M41.7089732,19.2769443 L48.8848661,19.2769443 C51.7003795,19.2769443 54.3463393,20.5707024 54.3463393,24.155182 C54.3463393,27.9092441 52.2082366,29.3726852 48.8848661,29.3726852 L45.6461719,29.3726852 L45.6461719,34.4205054 L41.7089732,34.4205054 L41.7089732,19.2769443 L41.7089732,19.2769443 Z" id="Fill-1" fill="#FFFFFF" sketch:type="MSShapeGroup"></path>
            <path d="M62.7498884,27.7819315 C62.6863058,26.5305439 61.8185491,25.5336809 60.6118862,25.5336809 C59.3418415,25.5336809 58.5162723,26.4245675 58.2834375,27.7819315 L62.7498884,27.7819315 L62.7498884,27.7819315 Z M58.2834375,29.7968929 C58.3469196,31.32394 59.2147768,32.2995675 60.7388504,32.2995675 C61.606808,32.2995675 62.453471,31.9178308 62.7922768,31.090651 L66.1578348,31.090651 C65.4805246,33.6358972 63.1519754,34.738636 60.6965625,34.738636 C57.1190625,34.738636 54.6847433,32.5754283 54.6847433,28.8849722 C54.6847433,25.512546 57.373192,23.0947131 60.6118862,23.0947131 C64.5491853,23.0947131 66.5177344,26.0639657 66.3484821,29.7968929 L58.2834375,29.7968929 L58.2834375,29.7968929 Z" id="Fill-2" fill="#FFFFFF" sketch:type="MSShapeGroup"></path>
            <path d="M72.9739286,31.9815375 C74.6672545,31.9815375 75.1754129,30.3483126 75.1754129,28.927242 C75.1754129,27.5275075 74.6672545,25.8518116 72.9739286,25.8518116 C71.3016964,25.8518116 70.7936384,27.5275075 70.7936384,28.927242 C70.7936384,30.3483126 71.3016964,31.9815375 72.9739286,31.9815375 L72.9739286,31.9815375 Z M72.9739286,23.0947131 C76.3819754,23.0947131 78.7740067,25.6185225 78.7740067,28.927242 C78.7740067,32.2359615 76.3819754,34.738636 72.9739286,34.738636 C69.5656808,34.738636 67.1949442,32.2359615 67.1949442,28.927242 C67.1949442,25.6185225 69.5656808,23.0947131 72.9739286,23.0947131 L72.9739286,23.0947131 Z" id="Fill-3" fill="#FFFFFF" sketch:type="MSShapeGroup"></path>
            <path d="M83.2823438,28.7999293 C83.2823438,30.7300493 83.8325893,31.9815375 85.4626339,31.9815375 C87.0501897,31.9815375 87.6218304,30.3058415 87.6218304,28.7999293 C87.6218304,27.4001949 87.0926786,25.8518116 85.4837277,25.8518116 C84.5312946,25.8518116 83.2823438,26.509409 83.2823438,28.7999293 L83.2823438,28.7999293 Z M79.8107143,23.412743 L83.2400558,23.412743 L83.2400558,24.6853662 L83.2823438,24.6853662 C84.0021429,23.6248972 85.018058,23.0947131 86.3092969,23.0947131 C89.7597321,23.0947131 91.2205246,26.0428308 91.2205246,29.160531 C91.2205246,32.0238073 89.69625,34.738636 86.5845201,34.738636 C85.2508929,34.738636 84.1924888,34.2295867 83.451596,33.2327238 L83.4094085,33.2327238 L83.4094085,38.1109615 L79.8107143,38.1109615 L79.8107143,23.412743 L79.8107143,23.412743 Z" id="Fill-4" fill="#FFFFFF" sketch:type="MSShapeGroup"></path>
            <path d="M92.4266853,19.2769443 L96.025279,19.2769443 L96.025279,34.4205054 L92.4266853,34.4205054 L92.4266853,19.2769443 Z" id="Fill-5" fill="#FFFFFF" sketch:type="MSShapeGroup"></path>
            <path d="M105.254799,27.7819315 C105.190513,26.5305439 104.322656,25.5336809 103.116295,25.5336809 C101.846652,25.5336809 101.020982,26.4245675 100.787946,27.7819315 L105.254799,27.7819315 L105.254799,27.7819315 Z M100.787946,29.7968929 C100.851228,31.32394 101.719085,32.2995675 103.242857,32.2995675 C104.111719,32.2995675 104.958482,31.9178308 105.296987,31.090651 L108.661942,31.090651 C107.984933,33.6358972 105.656585,34.738636 103.20067,34.738636 C99.6235714,34.738636 97.1892522,32.5754283 97.1892522,28.8849722 C97.1892522,25.512546 99.8777009,23.0947131 103.116295,23.0947131 C107.053795,23.0947131 109.022545,26.0639657 108.85279,29.7968929 L100.787946,29.7968929 L100.787946,29.7968929 Z" id="Fill-6" fill="#FFFFFF" sketch:type="MSShapeGroup"></path>
            <path d="M109.636272,19.2769443 L113.001228,19.2769443 L113.001228,22.7977173 C112.980134,24.9186552 111.943527,26.509409 109.636272,26.9122805 L109.636272,25.215651 C110.567411,25.0459679 111.223326,24.218788 111.160045,23.2218244 L109.636272,23.2218244 L109.636272,19.2769443" id="Fill-7" fill="#FFFFFF" sketch:type="MSShapeGroup"></path>
            <path d="M116.451562,30.7937559 C116.451562,31.3663105 116.684598,31.7482484 117.045201,32.0238073 C117.383705,32.2784325 117.869866,32.4055439 118.378125,32.4055439 C119.056138,32.4055439 120.071652,32.0875139 120.071652,31.2390985 C120.071652,30.3694475 118.928571,30.2423362 118.314844,30.0725525 C116.049777,29.4999979 113.21317,29.4362912 113.21317,26.4670385 C113.21317,23.8370514 116.070871,23.0947131 118.230469,23.0947131 C120.622098,23.0947131 123.183482,23.7945803 123.288951,26.6578565 L119.966183,26.6578565 C119.966183,26.2124133 119.817522,25.8942827 119.500112,25.703364 C119.224888,25.512546 118.844196,25.4277045 118.357031,25.4277045 C117.764397,25.4277045 116.812165,25.4914111 116.812165,26.2548844 C116.812165,27.2728822 119.224888,27.5061713 120.876228,27.8456381 C123.078013,28.2909807 123.670647,29.9028694 123.670647,30.8148908 C123.670647,33.7630086 120.876228,34.738636 118.399219,34.738636 C115.774554,34.738636 113.128795,33.8690857 113.023326,30.7937559 L116.451562,30.7937559" id="Fill-8" fill="#FFFFFF" sketch:type="MSShapeGroup"></path>
            <path d="M137.133482,22.6704047 L132.624442,22.6704047 L132.624442,34.4205054 L128.686942,34.4205054 L128.686942,22.6704047 L124.177902,22.6704047 L124.177902,19.2769443 L137.133482,19.2769443 L137.133482,22.6704047" id="Fill-9" fill="#FFFFFF" sketch:type="MSShapeGroup"></path>
            <path d="M136.476562,23.412743 L139.969085,23.412743 L139.969085,25.3429636 L140.012277,25.3429636 C140.540625,23.9218929 141.769085,23.2006895 143.313951,23.2006895 C143.589174,23.2006895 143.885491,23.2218244 144.160714,23.2854304 L144.160714,26.573015 C143.673549,26.4245675 143.271763,26.3608608 142.784598,26.3608608 C141.006696,26.3608608 140.075558,27.5910128 140.075558,28.9697131 L140.075558,34.4205054 L136.476562,34.4205054 L136.476562,23.412743" id="Fill-10" fill="#FFFFFF" sketch:type="MSShapeGroup"></path>
            <path d="M156.289621,34.4205054 L152.797098,34.4205054 L152.797098,32.9146938 L152.754911,32.9146938 C152.077902,34.0387687 150.680692,34.738636 149.410045,34.738636 C146.256027,34.738636 145.345982,32.9146938 145.345982,30.030182 L145.345982,23.412743 L148.944978,23.412743 L148.944978,29.7968929 C148.944978,31.260334 149.558705,31.7693833 150.722879,31.7693833 C151.484263,31.7693833 152.691629,31.260334 152.691629,29.3089786 L152.691629,23.412743 L156.289621,23.412743 L156.289621,34.4205054" id="Fill-11" fill="#FFFFFF" sketch:type="MSShapeGroup"></path>
            <path d="M160.597768,30.7937559 C160.597768,31.3663105 160.830804,31.7482484 161.190402,32.0238073 C161.528906,32.2784325 162.016071,32.4055439 162.52433,32.4055439 C163.201339,32.4055439 164.217857,32.0875139 164.217857,31.2390985 C164.217857,30.3694475 163.074777,30.2423362 162.460045,30.0725525 C160.195982,29.4999979 157.359375,29.4362912 157.359375,26.4670385 C157.359375,23.8370514 160.217076,23.0947131 162.37567,23.0947131 C164.768304,23.0947131 167.329688,23.7945803 167.435156,26.6578565 L164.111384,26.6578565 C164.111384,26.2124133 163.963728,25.8942827 163.646317,25.703364 C163.371094,25.512546 162.989397,25.4277045 162.502232,25.4277045 C161.910603,25.4277045 160.957366,25.4914111 160.957366,26.2548844 C160.957366,27.2728822 163.371094,27.5061713 165.021429,27.8456381 C167.223214,28.2909807 167.815848,29.9028694 167.815848,30.8148908 C167.815848,33.7630086 165.021429,34.738636 162.545424,34.738636 C159.920759,34.738636 157.273996,33.8690857 157.168527,30.7937559 L160.597768,30.7937559" id="Fill-12" fill="#FFFFFF" sketch:type="MSShapeGroup"></path>
            <path d="M175.775223,25.7458351 L173.552344,25.7458351 L173.552344,30.7511842 C173.552344,31.6209358 174.060603,31.8116531 174.844085,31.8116531 C175.161496,31.8116531 175.457812,31.7693833 175.775223,31.7693833 L175.775223,34.4205054 C175.119308,34.4416403 174.462388,34.5264818 173.806473,34.5264818 C170.73683,34.5264818 169.954353,33.6144604 169.954353,30.6453084 L169.954353,25.7458351 L168.133259,25.7458351 L168.133259,23.412743 L169.954353,23.412743 L169.954353,20.0828887 L173.552344,20.0828887 L173.552344,23.412743 L175.775223,23.412743 L175.775223,25.7458351" id="Fill-13" fill="#FFFFFF" sketch:type="MSShapeGroup"></path>
            <path d="M23.6382589,39.0680707 C23.9344754,40.3047645 24.0782143,42.3915846 23.9970536,43.6740707 C23.5693527,43.096182 23.0922321,42.0134711 22.8784821,41.3402741 L22.7505134,41.0094625 L22.7630692,40.9013726 L22.8477455,40.6828779 L23.1858482,39.8392934 C23.3226562,39.5127088 23.4678013,39.1883383 23.578192,39.0056724 L23.6382589,39.0680707" id="Fill-14" fill="#FFFFFF" sketch:type="MSShapeGroup"></path>
            <path d="M18.8007589,45.3130321 L19.6842857,31.9302099 C19.7412388,31.4012334 20.0608594,28.8639379 21.0237388,27.9861349 C21.600904,27.4622912 22.5154687,27.1278565 23.1841406,26.9384475 C22.5906027,24.8296874 21.9895312,22.9658908 21.6344531,22.6132398 C20.7457031,21.732015 17.3207812,21.3081092 17.3207812,21.3081092 L17.3207812,20.6489015 C17.3207812,20.6489015 17.702779,20.3871306 18.0826674,19.2517837 C18.4600446,18.1153298 18.4703906,16.3955525 18.0472098,15.0631478 C17.7152344,14.0219015 16.5098772,13.3612848 15.3394754,13.3612848 C14.1698772,13.3612848 13.036942,14.024015 12.8479018,15.6327837 C12.6592634,17.2440685 12.8232924,18.2377109 13.0948996,18.9256017 C13.2291964,19.268591 13.3919196,19.5348908 13.5491183,19.7637516 L13.9811384,20.3678073 C14.4560491,21.1247388 13.9811384,21.3138458 13.9811384,21.3138458 C13.9811384,21.3138458 10.3185603,21.8441306 9.55155134,22.6984839 C8.44342634,23.573167 8.41881696,26.3943747 8.41881696,26.3943747 C8.41881696,26.3943747 7.34815848,36.112606 7.42279018,37.197531 C7.5221317,38.6318865 9.03485491,41.3545653 9.03485491,41.3545653 L9.07453125,45.3584218 L18.8024665,45.3584218 C18.8024665,45.3432248 18.7997545,45.3283298 18.8007589,45.3130321" id="Fill-15" fill="#FFFFFF" sketch:type="MSShapeGroup"></path>
            <path d="M34.1816183,39.3401071 C33.9510937,40.0569829 33.4425335,41.2106467 32.9865067,41.8286916 C32.8993192,40.4580428 33.0548103,38.2323362 33.3678013,36.9117066 L33.4321875,36.8472955 C33.5508147,37.0435482 33.7044978,37.3879465 33.847433,37.735364 L34.2126562,38.6376231 C34.2126562,38.6376231 34.2654911,38.8561178 34.2539397,39.0186552 C34.2422879,39.1811927 34.1816183,39.3401071 34.1816183,39.3401071 L34.1816183,39.3401071 Z M35.5613504,45.3584218 L35.5466853,45.2689507 L37.4716406,39.9859293 C37.6479241,39.5020407 37.6759487,38.9777944 37.5510937,38.4780043 C36.9336496,36.0065289 35.0023661,28.388 34.5632143,28.0031435 C34.0382812,27.542 32.1960938,27.1137666 32.1960938,27.1137666 L31.5324442,25.7165482 C31.33125,25.2951585 31.1708371,24.947439 31.1254353,24.7648737 C31.0259933,24.3738779 30.980692,23.9707045 30.9591964,23.5653169 C31.0924888,22.4886445 31.0653683,21.2242741 30.7748772,20.3076231 L30.6923103,20.0978844 L30.6583594,19.9896938 L30.6483147,20.0061991 C29.878192,18.5119615 27.2397656,17.9860043 26.0672545,19.4763169 L26.0573103,19.4704797 C25.3393192,20.3678073 25.1877455,21.5755161 25.1377232,22.7607816 L25.1377232,23.3827516 L25.1523884,24.186985 C25.1545982,24.7411221 25.1298884,25.2926424 25.0133705,25.5772591 L24.7374442,26.3274475 C24.5984263,26.6687259 24.4037612,27.0675717 24.1300446,27.4209272 C24.1300446,27.4209272 22.3063393,27.7518394 21.4864955,28.4958887 C20.6674554,29.2423533 20.3704353,31.9754989 20.3704353,31.9754989 L19.4871094,45.3584218 L35.5613504,45.3584218 L35.5613504,45.3584218 Z" id="Fill-16" fill="#FFFFFF" sketch:type="MSShapeGroup"></path>
            <path d="M41.5739732,39.0662591 L43.2114509,39.0662591 L43.2114509,45.3646617 L41.5739732,45.3646617 L41.5739732,39.0662591 Z" id="Fill-17" fill="#FFFFFF" sketch:type="MSShapeGroup"></path>
            <path d="M44.2848214,40.786439 L45.7374777,40.786439 L45.7374777,41.412636 L45.7550558,41.412636 C46.036808,40.9449507 46.6442076,40.6539936 47.1901339,40.6539936 C48.7132031,40.6539936 48.8365513,41.7656895 48.8365513,42.4271113 L48.8365513,45.3646617 L47.3396987,45.3646617 L47.3396987,42.6915996 C47.3396987,42.2507859 47.1901339,41.8890771 46.5913728,41.8890771 C46.0278683,41.8890771 45.7814732,42.3741734 45.7814732,42.8683276 L45.7814732,45.3646617 L44.2848214,45.3646617 L44.2848214,40.786439" id="Fill-18" fill="#FFFFFF" sketch:type="MSShapeGroup"></path>
            <path d="M50.9917299,43.856334 C50.9917299,44.0943533 51.0885603,44.2532677 51.2383259,44.3678994 C51.3791518,44.4734732 51.5816518,44.5265118 51.7928906,44.5265118 C52.0746429,44.5265118 52.497221,44.3943683 52.497221,44.0413148 C52.497221,43.679606 52.021808,43.6266681 51.7664732,43.5562184 C50.8243862,43.3178972 49.6446429,43.2917302 49.6446429,42.0566467 C49.6446429,40.9627645 50.8333259,40.6539936 51.7314174,40.6539936 C52.7261384,40.6539936 53.7914732,40.9449507 53.8354687,42.1361542 L52.4532254,42.1361542 C52.4532254,41.9507709 52.3917522,41.8183255 52.2595647,41.7392206 C52.1450558,41.6597131 51.9866518,41.6241863 51.7840513,41.6241863 C51.5376562,41.6241863 51.1414955,41.6506552 51.1414955,41.9684839 C51.1414955,42.3919872 52.1450558,42.4888051 52.8319085,42.6300064 C53.7474777,42.8153897 53.9939732,43.4855675 53.9939732,43.8650899 C53.9939732,45.091015 52.8319085,45.4970064 51.8018304,45.4970064 C50.7099777,45.4970064 49.6094866,45.1352976 49.5654911,43.856334 L50.9917299,43.856334" id="Fill-19" fill="#FFFFFF" sketch:type="MSShapeGroup"></path>
            <path d="M59.2663058,45.3646617 L57.8136496,45.3646617 L57.8136496,44.738364 L57.7960714,44.738364 C57.5143192,45.2057473 56.9331362,45.4970064 56.4049888,45.4970064 C55.0931585,45.4970064 54.7145759,44.738364 54.7145759,43.5385054 L54.7145759,40.786439 L56.2112277,40.786439 L56.2112277,43.4415867 C56.2112277,44.0500707 56.4665625,44.2619229 56.9508147,44.2619229 C57.2677232,44.2619229 57.769654,44.0500707 57.769654,43.2387923 L57.769654,40.786439 L59.2663058,40.786439 L59.2663058,45.3646617" id="Fill-20" fill="#FFFFFF" sketch:type="MSShapeGroup"></path>
            <path d="M60.3211942,40.786439 L61.7740513,40.786439 L61.7740513,41.5889615 L61.791529,41.5889615 C62.0115067,40.9979893 62.5223772,40.6982762 63.164933,40.6982762 C63.2793415,40.6982762 63.4026897,40.7069315 63.5170982,40.7334004 L63.5170982,42.1006274 C63.3146987,42.0389336 63.1473549,42.0124647 62.9449554,42.0124647 C62.2052679,42.0124647 61.8179464,42.52403 61.8179464,43.0976916 L61.8179464,45.3646617 L60.3211942,45.3646617 L60.3211942,40.786439" id="Fill-21" fill="#FFFFFF" sketch:type="MSShapeGroup"></path>
            <path d="M65.8931585,44.5707944 C66.6062277,44.5707944 66.8439844,44.1737602 66.8088281,43.2209786 C66.5974888,43.353424 66.210067,43.3708351 65.8843192,43.4680557 C65.5409933,43.5475632 65.2679799,43.6886638 65.2679799,44.0500707 C65.2679799,44.4295931 65.5497321,44.5707944 65.8931585,44.5707944 L65.8931585,44.5707944 Z M63.9561496,42.197848 C63.982567,41.5980193 64.2556808,41.2098415 64.6694196,40.9714197 C65.083058,40.7334004 65.5937277,40.6539936 66.1220759,40.6539936 C67.2049888,40.6539936 68.2526451,40.8923148 68.2526451,42.1887901 L68.2526451,44.1912719 C68.2526451,44.5794497 68.2526451,45.0028522 68.4287277,45.3646617 L66.9232366,45.3646617 C66.8614621,45.2234604 66.8614621,45.0823597 66.8352455,44.9325032 C66.4478237,45.346848 65.8843192,45.4970064 65.3297545,45.4970064 C64.4492411,45.4970064 63.7713281,45.0558908 63.7713281,44.112167 C63.7713281,42.6300064 65.3912277,42.7358822 66.4302455,42.52403 C66.6854799,42.4623362 66.8264063,42.3828287 66.8264063,42.1006274 C66.8264063,41.7566317 66.4126674,41.6241863 66.1044978,41.6241863 C65.6729799,41.6241863 65.4265848,41.8183255 65.3561719,42.197848 L63.9561496,42.197848 L63.9561496,42.197848 Z" id="Fill-22" fill="#FFFFFF" sketch:type="MSShapeGroup"></path>
            <path d="M69.2370201,40.786439 L70.6896763,40.786439 L70.6896763,41.412636 L70.7072545,41.412636 C70.9890067,40.9449507 71.5965067,40.6539936 72.1423326,40.6539936 C73.6655022,40.6539936 73.78875,41.7656895 73.78875,42.4271113 L73.78875,45.3646617 L72.2918973,45.3646617 L72.2918973,42.6915996 C72.2918973,42.2507859 72.1423326,41.8890771 71.5435714,41.8890771 C70.9801674,41.8890771 70.7336719,42.3741734 70.7336719,42.8683276 L70.7336719,45.3646617 L69.2370201,45.3646617 L69.2370201,40.786439" id="Fill-23" fill="#FFFFFF" sketch:type="MSShapeGroup"></path>
            <path d="M77.7578906,42.4623362 C77.7578906,42.0740578 77.4057254,41.8009143 77.0270424,41.8009143 C76.1907254,41.8009143 76.0585379,42.5152741 76.0585379,43.1506296 C76.0585379,43.7417024 76.3138728,44.3501863 76.9477902,44.3501863 C77.4761384,44.3501863 77.7313728,44.0591285 77.8018862,43.5649743 L79.2545424,43.5649743 C79.1136161,44.8000578 78.1804688,45.4970064 76.9566295,45.4970064 C75.5833259,45.4970064 74.5618862,44.5620385 74.5618862,43.1506296 C74.5618862,41.6949379 75.4863951,40.6539936 76.9566295,40.6539936 C78.1011161,40.6539936 79.0960379,41.2627794 79.2105469,42.4623362 L77.7578906,42.4623362" id="Fill-24" fill="#FFFFFF" sketch:type="MSShapeGroup"></path>
            <path d="M83.1355915,42.6034368 C83.1091741,42.0831156 82.7482701,41.668469 82.2464397,41.668469 C81.7180915,41.668469 81.3747656,42.0389336 81.2779353,42.6034368 L83.1355915,42.6034368 L83.1355915,42.6034368 Z M81.2779353,43.4415867 C81.3043527,44.0765396 81.6653571,44.4826317 82.2992746,44.4826317 C82.6600781,44.4826317 83.0122433,44.3236167 83.1531696,43.9797216 L84.5530915,43.9797216 C84.2714397,45.0380771 83.3029353,45.4970064 82.2814955,45.4970064 C80.793683,45.4970064 79.781183,44.5972634 79.781183,43.0620642 C79.781183,41.6597131 80.8992522,40.6539936 82.2464397,40.6539936 C83.8839174,40.6539936 84.7026563,41.8890771 84.6322433,43.4415867 L81.2779353,43.4415867 L81.2779353,43.4415867 Z" id="Fill-25" fill="#FFFFFF" sketch:type="MSShapeGroup"></path>
            <path d="M92.3863058,41.315818 C92.2895759,40.6804625 91.8140625,40.3452227 91.118471,40.3452227 C90.0619754,40.3452227 89.656875,41.2715353 89.656875,42.2152591 C89.656875,43.1592848 90.0619754,44.0855974 91.118471,44.0855974 C91.8934152,44.0855974 92.3247321,43.653137 92.3863058,42.9209636 L94.0237835,42.9209636 C93.927154,44.5529807 92.7473103,45.4970064 91.1536272,45.4970064 C89.2432366,45.4970064 88.0193973,44.0413148 88.0193973,42.2152591 C88.0193973,40.3895054 89.2432366,38.9338137 91.1536272,38.9338137 C92.5184933,38.9338137 93.9799888,39.7984325 94.0237835,41.315818 L92.3863058,41.315818" id="Fill-26" fill="#FFFFFF" sketch:type="MSShapeGroup"></path>
            <path d="M97.0149777,44.3501863 C97.719308,44.3501863 97.9307478,43.6709507 97.9307478,43.0798779 C97.9307478,42.497561 97.719308,41.8009143 97.0149777,41.8009143 C96.3196875,41.8009143 96.1081473,42.497561 96.1081473,43.0798779 C96.1081473,43.6709507 96.3196875,44.3501863 97.0149777,44.3501863 L97.0149777,44.3501863 Z M97.0149777,40.6539936 C98.4326786,40.6539936 99.4273996,41.7035931 99.4273996,43.0798779 C99.4273996,44.4560621 98.4326786,45.4970064 97.0149777,45.4970064 C95.5975781,45.4970064 94.6114955,44.4560621 94.6114955,43.0798779 C94.6114955,41.7035931 95.5975781,40.6539936 97.0149777,40.6539936 L97.0149777,40.6539936 Z" id="Fill-27" fill="#FFFFFF" sketch:type="MSShapeGroup"></path>
            <g id="Group-31">
                <mask id="mask-2" sketch:name="Clip 29" fill="white">
                    <use xlink:href="#path-1"></use>
                </mask>
                <g id="Clip-29"></g>
                <path d="M100.209576,40.786439 L101.66183,40.786439 L101.66183,41.412636 L101.679911,41.412636 C101.953125,40.9540086 102.428237,40.6539936 102.991741,40.6539936 C103.564286,40.6539936 104.074554,40.8393769 104.321652,41.3949229 C104.682254,40.9010707 105.12221,40.6539936 105.746987,40.6539936 C107.200446,40.6539936 107.359152,41.7566317 107.359152,42.6300064 L107.359152,45.3646617 L105.861496,45.3646617 L105.861496,42.6741884 C105.861496,42.1800343 105.624442,41.8890771 105.236719,41.8890771 C104.593862,41.8890771 104.532589,42.3828287 104.532589,43.1241606 L104.532589,45.3646617 L103.035938,45.3646617 L103.035938,42.7623512 C103.035938,42.2243169 102.886272,41.8890771 102.472433,41.8890771 C101.935045,41.8890771 101.706027,42.2065032 101.706027,43.1328158 L101.706027,45.3646617 L100.209576,45.3646617 L100.209576,40.786439" id="Fill-28" fill="#FFFFFF" sketch:type="MSShapeGroup" mask="url(#mask-2)"></path>
                <path d="M109.804018,43.02694 C109.804018,43.8298651 110.033036,44.3501863 110.710045,44.3501863 C111.370982,44.3501863 111.60904,43.653137 111.60904,43.02694 C111.60904,42.4449251 111.388058,41.8009143 110.719085,41.8009143 C110.323326,41.8009143 109.804018,42.0740578 109.804018,43.02694 L109.804018,43.02694 Z M108.359598,40.786439 L109.785938,40.786439 L109.785938,41.315818 L109.804018,41.315818 C110.103348,40.8746017 110.526228,40.6539936 111.062612,40.6539936 C112.497991,40.6539936 113.105692,41.8803212 113.105692,43.1770985 C113.105692,44.3678994 112.471875,45.4970064 111.177121,45.4970064 C110.622656,45.4970064 110.182701,45.2851542 109.87433,44.8708094 L109.85625,44.8708094 L109.85625,46.8993576 L108.359598,46.8993576 L108.359598,40.786439 L108.359598,40.786439 Z" id="Fill-30" fill="#FFFFFF" sketch:type="MSShapeGroup" mask="url(#mask-2)"></path>
            </g>
            <path d="M115.779576,44.5707944 C116.49375,44.5707944 116.730804,44.1737602 116.695647,43.2209786 C116.48471,43.353424 116.096987,43.3708351 115.77154,43.4680557 C115.428013,43.5475632 115.154799,43.6886638 115.154799,44.0500707 C115.154799,44.4295931 115.437054,44.5707944 115.779576,44.5707944 L115.779576,44.5707944 Z M113.842969,42.197848 C113.870089,41.5980193 114.142299,41.2098415 114.556138,40.9714197 C114.969978,40.7334004 115.48125,40.6539936 116.009598,40.6539936 C117.091406,40.6539936 118.139063,40.8923148 118.139063,42.1887901 L118.139063,44.1912719 C118.139063,44.5794497 118.139063,45.0028522 118.315848,45.3646617 L116.810156,45.3646617 C116.748884,45.2234604 116.748884,45.0823597 116.721763,44.9325032 C116.335045,45.346848 115.77154,45.4970064 115.216071,45.4970064 C114.336161,45.4970064 113.658147,45.0558908 113.658147,44.112167 C113.658147,42.6300064 115.278348,42.7358822 116.316964,42.52403 C116.573103,42.4623362 116.712723,42.3828287 116.712723,42.1006274 C116.712723,41.7566317 116.299888,41.6241863 115.991518,41.6241863 C115.560603,41.6241863 115.313504,41.8183255 115.243192,42.197848 L113.842969,42.197848 L113.842969,42.197848 Z" id="Fill-32" fill="#FFFFFF" sketch:type="MSShapeGroup"></path>
            <g id="Group-36">
                <mask id="mask-4" sketch:name="Clip 34" fill="white">
                    <use xlink:href="#path-3"></use>
                </mask>
                <g id="Clip-34"></g>
                <path d="M119.124442,40.786439 L120.576897,40.786439 L120.576897,41.412636 L120.593973,41.412636 C120.876228,40.9449507 121.483929,40.6539936 122.029353,40.6539936 C123.552121,40.6539936 123.67567,41.7656895 123.67567,42.4271113 L123.67567,45.3646617 L122.179018,45.3646617 L122.179018,42.6915996 C122.179018,42.2507859 122.029353,41.8890771 121.430692,41.8890771 C120.867188,41.8890771 120.621094,42.3741734 120.621094,42.8683276 L120.621094,45.3646617 L119.124442,45.3646617 L119.124442,40.786439" id="Fill-33" fill="#FFFFFF" sketch:type="MSShapeGroup" mask="url(#mask-4)"></path>
                <path d="M127.160156,45.7702505 C126.808594,46.7760707 126.254129,46.8993576 125.249665,46.8993576 L124.545536,46.8993576 L124.545536,45.6820878 L125.064844,45.6820878 C125.408371,45.6820878 125.663504,45.4879486 125.663504,45.1705225 C125.663504,44.9234454 125.373214,44.2177409 125.285826,43.9709657 L124.10558,40.786439 L125.690625,40.786439 L126.55346,43.7677687 L126.570536,43.7677687 L127.433371,40.786439 L128.965179,40.786439 L127.160156,45.7702505" id="Fill-35" fill="#FFFFFF" sketch:type="MSShapeGroup" mask="url(#mask-4)"></path>
            </g>
            <path d="M178.137723,33.0318415 L178.421987,33.0318415 C178.661049,33.0318415 178.881027,33.0198651 178.881027,32.7434004 C178.881027,32.5114197 178.681138,32.4751884 178.497321,32.4751884 L178.137723,32.4751884 L178.137723,33.0318415 L178.137723,33.0318415 Z M177.866518,32.2552848 L178.541518,32.2552848 C178.957366,32.2552848 179.153237,32.4195332 179.153237,32.7554775 C179.153237,33.0715953 178.953348,33.20394 178.693192,33.2319186 L179.192411,34.004349 L178.901116,34.004349 L178.426004,33.2518458 L178.137723,33.2518458 L178.137723,34.004349 L177.866518,34.004349 L177.866518,32.2552848 L177.866518,32.2552848 Z M178.450112,34.4084283 C179.141183,34.4084283 179.675558,33.8561028 179.675558,33.1237281 C179.675558,32.4074561 179.141183,31.85503 178.450112,31.85503 C177.746987,31.85503 177.215625,32.4074561 177.215625,33.1237281 C177.215625,33.8561028 177.746987,34.4084283 178.450112,34.4084283 L178.450112,34.4084283 Z M178.450112,31.6347238 C179.264732,31.6347238 179.947768,32.2793383 179.947768,33.1237281 C179.947768,33.9844218 179.264732,34.6287345 178.450112,34.6287345 C177.630469,34.6287345 176.943415,33.9844218 176.943415,33.1237281 C176.943415,32.2793383 177.630469,31.6347238 178.450112,31.6347238 L178.450112,31.6347238 Z" id="Fill-37" fill="#FFFFFF" sketch:type="MSShapeGroup"></path>
            <g id="Group-41">
                <mask id="mask-6" sketch:name="Clip 39" fill="white">
                    <use xlink:href="#path-5"></use>
                </mask>
                <g id="Clip-39"></g>
                <path d="M8.1915067,14.9954154 L22.5803571,5.43338116 L36.9692076,14.9954154 L38.4158371,14.9954154 L22.5803571,4.47204497 L6.74487723,14.9954154 L8.1915067,14.9954154" id="Fill-38" fill="#FFFFFF" sketch:type="MSShapeGroup" mask="url(#mask-6)"></path>
                <path d="M22.5803571,3.06617131 L40.5313393,14.9954154 L45.1607143,14.9954154 L22.5803571,-0.0101648822 L0,14.9954154 L4.62927455,14.9954154 L22.5803571,3.06617131" id="Fill-40" fill="#FFFFFF" sketch:type="MSShapeGroup" mask="url(#mask-6)"></path>
            </g>
            <path d="M4.02006696,7.08210493 L7.61414063,7.08210493 L7.61414063,12.3853555 L4.02006696,12.3853555 L4.02006696,7.08210493 Z" id="Fill-42" fill="#FFFFFF" sketch:type="MSShapeGroup"></path>
        </g>
    </g>
</svg>